<?xml version="1.0" encoding="UTF-8"?>
<svg width="24px" height="24px" viewBox="0 0 24 24" version="1.1" xmlns="http://www.w3.org/2000/svg" xmlns:xlink="http://www.w3.org/1999/xlink">
    <!-- Generator: Sketch 51.3 (57544) - http://www.bohemiancoding.com/sketch -->
    <title>Artboard</title>
    <desc>Created with Sketch.</desc>
    <defs></defs>
    <g id="Artboard" stroke="none" stroke-width="1" fill="none" fill-rule="evenodd">
        <g id="passport-(1)" transform="translate(4.000000, 0.000000)" fill="#000000" fill-rule="nonzero">
            <path d="M8.20317187,6.41789062 C5.56617187,6.41789062 3.42084375,8.56321875 3.42084375,11.2002187 C3.42084375,13.8372187 5.56617187,15.9825469 8.20317187,15.9825469 C10.8401719,15.9825469 12.9855,13.8372187 12.9855,11.2002187 C12.9855,8.56321875 10.840125,6.41789062 8.20317187,6.41789062 Z M11.4890156,9.20615625 L10.2621094,9.20615625 C10.1707031,8.75592187 10.0480781,8.3386875 9.89629687,7.9711875 C9.85589062,7.8733125 9.8135625,7.77984375 9.76964062,7.69064062 C10.4844375,8.01089062 11.0846719,8.54226562 11.4890156,9.20615625 Z M7.376625,8.329125 C7.6209375,7.73775 7.94540625,7.35557812 8.20317187,7.35557812 C8.4609375,7.35557812 8.78540625,7.73770312 9.02967187,8.329125 C9.13842187,8.59251562 9.229875,8.887875 9.303375,9.20610937 L7.102875,9.20610937 C7.17646875,8.887875 7.26782812,8.59260937 7.376625,8.329125 Z M4.5073125,12.2566406 C4.411125,11.9207344 4.35853125,11.5666406 4.35853125,11.2002187 C4.35853125,10.8338437 4.411125,10.47975 4.5073125,10.1437969 L6.00440625,10.1437969 C5.97046875,10.4865937 5.95265625,10.8403594 5.95265625,11.2002187 C5.95265625,11.5600781 5.97051562,11.9138437 6.00440625,12.2566406 L4.5073125,12.2566406 Z M4.91728125,13.194375 L6.1441875,13.194375 C6.23559375,13.6446094 6.35821875,14.0618437 6.51,14.4293437 C6.55040625,14.5272187 6.5926875,14.6206875 6.63665625,14.7098437 C5.92185937,14.3895937 5.321625,13.8582187 4.91728125,13.194375 Z M6.50995312,7.9711875 C6.35817187,8.3386875 6.23559375,8.75592187 6.14414062,9.20615625 L4.91723437,9.20615625 C5.32157812,8.5423125 5.92185937,8.01089062 6.6365625,7.69064062 C6.5926875,7.77984375 6.55040625,7.87326562 6.50995312,7.9711875 Z M9.02971875,14.0713125 C8.78540625,14.6627344 8.4609375,15.0448594 8.20317187,15.0448594 C7.94540625,15.0448594 7.6209375,14.6627344 7.37667187,14.0713125 C7.26792188,13.8079219 7.17646875,13.5125625 7.10296875,13.194375 L9.30346875,13.194375 C9.229875,13.5126094 9.13846875,13.8079219 9.02971875,14.0713125 Z M9.4595625,12.2566406 L6.9466875,12.2566406 C6.90979687,11.9169375 6.89039062,11.56275 6.89039062,11.2002187 C6.89039062,10.8376875 6.90984375,10.4835 6.9466875,10.1437969 L9.45960937,10.1437969 C9.4965,10.4835 9.51590625,10.8376406 9.51590625,11.2002187 C9.51590625,11.56275 9.49645312,11.9169844 9.4595625,12.2566406 Z M9.7696875,14.7098437 C9.81360937,14.6206406 9.85589062,14.5271719 9.89634375,14.4293437 C10.048125,14.0618437 10.1707031,13.6446094 10.2621562,13.194375 L11.4890156,13.194375 C11.084625,13.8582187 10.4844375,14.3895937 9.7696875,14.7098437 Z M10.4018437,12.2566875 C10.4357812,11.9138906 10.4535937,11.560125 10.4535937,11.2002656 C10.4536406,10.8404062 10.4357812,10.4866406 10.4018437,10.1438437 L11.8989375,10.1438437 C11.9950781,10.47975 12.0477187,10.8338437 12.0477187,11.2002656 C12.0477187,11.5666875 11.995125,11.9207344 11.8989375,12.2566875 L10.4018437,12.2566875 Z" id="Shape"></path>
            <path d="M13.2593984,17.3012237 C13.1478918,17.1897185 12.9930783,17.1254531 12.8352656,17.1254531 C12.677453,17.1254531 12.5226994,17.1895986 12.4110729,17.3012237 C12.2995064,17.4133284 12.2352656,17.5673975 12.2352656,17.7257828 C12.2352656,17.8835088 12.2993864,18.0381773 12.4110729,18.149143 C12.5226394,18.2611878 12.677453,18.3254531 12.8352656,18.3254531 C12.9930783,18.3254531 13.1478319,18.2613076 13.2593984,18.149143 C13.3709649,18.0376977 13.4352656,17.8835088 13.4352656,17.7257828 C13.4352656,17.5673975 13.3710249,17.4133284 13.2593984,17.3012237 Z" id="Shape"></path>
            <path d="M10.6881094,17.1257344 L3.70214063,17.1257344 C3.44325,17.1257344 3.23329688,17.3944206 3.23329688,17.7257344 C3.23329688,18.0570481 3.44325,18.3257344 3.70214063,18.3257344 L10.6881094,18.3257344 C10.947,18.3257344 11.1569531,18.0570481 11.1569531,17.7257344 C11.1569531,17.3944206 10.947,17.1257344 10.6881094,17.1257344 Z" id="Shape"></path>
            <path d="M10.0082344,19.1707969 L6.3980625,19.1707969 C6.13917188,19.1707969 5.92921875,19.4394831 5.92921875,19.7707969 C5.92921875,20.1021106 6.13917188,20.3707969 6.3980625,20.3707969 L10.0082344,20.3707969 C10.267125,20.3707969 10.4770781,20.1021106 10.4770781,19.7707969 C10.4770781,19.4394831 10.2671719,19.1707969 10.0082344,19.1707969 Z" id="Shape"></path>
            <path d="M15.8924063,10.9884375 C16.1512969,10.9884375 16.36125,10.7785313 16.36125,10.5195938 L16.36125,4.8706875 C16.36125,3.91767188 15.7893281,3.09623438 14.9709375,2.73014062 L14.9709375,1.7671875 C14.9709375,1.23534375 14.7349688,0.737109375 14.3235,0.400171875 C13.9120313,0.063234375 13.3770938,-0.06975 12.8557031,0.03496875 L0.421453125,2.53560938 C0.42140625,2.53560938 0.421359375,2.53560938 0.4213125,2.53565625 C0.418921875,2.536125 0.416625,2.53678125 0.414234375,2.53729688 C0.405,2.5393125 0.396609375,2.54146875 0.388921875,2.5438125 C0.19078125,2.5985625 0.045046875,2.7796875 0.045046875,2.99526563 L0.045046875,23.5311563 C0.045046875,23.7900469 0.255,24 0.513890625,24 L14.0169375,24 C15.3095625,24 16.3612031,22.9483594 16.3612031,21.6557344 L16.3612031,14.8599844 C16.3612031,14.6010938 16.15125,14.3911406 15.8923594,14.3911406 C15.6334688,14.3911406 15.4235156,14.6010938 15.4235156,14.8599844 L15.4235156,21.6557344 C15.4235156,22.4313281 14.7925313,23.0623125 14.0169375,23.0623125 L0.98278125,23.0623125 L0.98278125,3.46410938 L14.0169844,3.46410938 C14.7925781,3.46410938 15.4235625,4.09509375 15.4235625,4.8706875 L15.4235625,10.5195938 C15.4235156,10.7785313 15.6334688,10.9884375 15.8924063,10.9884375 Z M14.0332031,2.52679688 C14.0277656,2.52675 14.0224219,2.526375 14.0169375,2.526375 L5.22332813,2.526375 L13.040625,0.95428125 C13.2853125,0.90515625 13.5363281,0.9675 13.7293594,1.12565625 C13.9224375,1.2838125 14.0331562,1.51757813 14.0331562,1.7671875 L14.0332031,2.52679688 Z" id="Shape"></path>
            <path d="M16.4476015,12.4320356 C16.336095,12.320529 16.1812814,12.2568281 16.0234687,12.2568281 C15.8656561,12.2568281 15.7109025,12.320469 15.599276,12.4320356 C15.4877095,12.5442019 15.4234688,12.6984156 15.4234688,12.8568281 C15.4234688,13.0146408 15.4875895,13.1693944 15.599276,13.2810209 C15.7109025,13.3925874 15.8656561,13.4568281 16.0234687,13.4568281 C16.1812814,13.4568281 16.336035,13.3927074 16.4476015,13.2810209 C16.559168,13.1694543 16.6234688,13.0146408 16.6234688,12.8568281 C16.6234688,12.6984156 16.559288,12.5436021 16.4476015,12.4320356 Z" id="Shape"></path>
        </g>
    </g>
</svg>