<?xml version="1.0" encoding="UTF-8"?>
<svg width="24px" height="24px" viewBox="0 0 24 24" version="1.1" xmlns="http://www.w3.org/2000/svg" xmlns:xlink="http://www.w3.org/1999/xlink">
    <!-- Generator: Sketch 51.3 (57544) - http://www.bohemiancoding.com/sketch -->
    <title>Artboard</title>
    <desc>Created with Sketch.</desc>
    <defs></defs>
    <g id="Artboard" stroke="none" stroke-width="1" fill="none" fill-rule="evenodd">
        <g id="contract" fill="#000000" fill-rule="nonzero">
            <path d="M23.9101481,5.67820945 C23.8277027,5.37162162 23.6265593,5.11025209 23.3513514,4.95179316 C23.0759486,4.79255456 22.7485057,4.74948025 22.4413332,4.83192569 C22.1345504,4.91456602 21.8731809,5.11551458 21.7147219,5.39072243 L21.5151377,5.73804574 C21.3254938,5.62909302 21.0832251,5.69321723 20.9723233,5.88188667 L19.95842,7.61012213 L19.6110966,7.41053793 C19.5191008,7.35732848 19.4095634,7.34290538 19.3070426,7.37058212 C19.2043269,7.39845375 19.1170088,7.46589136 19.0641892,7.55827704 C18.9560161,7.74909046 19.0218945,7.99155403 19.2119282,8.10109148 L19.5592516,8.30067568 L16.1663202,14.1804184 L15.3280276,16.4198934 L14.9288592,17.1661902 C14.6951663,17.5727651 14.7201143,18.0781575 14.9927885,18.4595894 L14.0946596,19.5612006 L13.8432302,18.9306783 C13.7297947,18.6496232 13.4672557,18.4570556 13.1653456,18.4334719 C12.8632406,18.4096934 12.5738046,18.5589917 12.4180743,18.818802 L12.2744283,19.0622401 L12.1387734,17.4655665 C12.1075884,17.0878378 11.8150338,16.7841736 11.4388643,16.7385655 C11.0625,16.6931523 10.706211,16.918659 10.5859537,17.2780665 L9.60401509,20.2238825 C9.53540802,20.4322375 9.64767413,20.6567698 9.85544437,20.7269361 C9.89442566,20.7450624 9.93633056,20.7559771 9.97920998,20.7587058 C10.1507277,20.7592905 10.3035343,20.649948 10.3584979,20.487396 L11.3363436,17.54158 L11.4760915,19.1620322 C11.5049376,19.5077963 11.7534434,19.7952833 12.0914111,19.8736356 C12.4293789,19.9519881 12.779041,19.8030795 12.9569907,19.5054574 L13.1047297,19.2618243 L13.3522609,19.8886434 C13.4573155,20.1527417 13.6949064,20.3412162 13.9761565,20.3831211 C14.2574065,20.425026 14.539631,20.3141242 14.7173857,20.0921258 L15.6474792,18.9146959 C15.7503898,18.941593 15.8564189,18.9550416 15.9628378,18.9546517 C16.3906575,18.9579652 16.7878768,18.7326533 17.0046128,18.3636954 L17.4037812,17.6971154 L18.9246362,15.8490125 L22.3534304,9.89734927 L22.7007537,10.0969335 C22.7933342,10.149948 22.8607718,10.237461 22.8882536,10.3405666 C22.9159304,10.4428924 22.9015073,10.55204 22.8484927,10.6438409 L21.2518191,13.4101481 C21.191593,13.5009745 21.1711279,13.612461 21.1952962,13.71888 C21.2194647,13.825104 21.2859278,13.9169049 21.3794829,13.972843 C21.4714787,14.0262474 21.5810161,14.0406705 21.6835369,14.0129938 C21.7862526,13.9851221 21.8735707,13.9176845 21.9263903,13.8252988 L23.5230639,11.0589917 C23.6823025,10.7835889 23.7253768,10.4561461 23.6427365,10.1489735 C23.5600962,9.84219074 23.3591476,9.58082121 23.0839397,9.42236228 L22.7366164,9.22277808 L23.7345374,7.49434773 C23.8434901,7.30470377 23.7793659,7.06262994 23.5908914,6.95153324 L23.7904756,6.60420998 C23.9540021,6.32451922 23.9972713,5.9904496 23.9101481,5.67820945 Z M22.4052754,5.78989083 C22.4580951,5.6975052 22.545803,5.62987265 22.6489085,5.60239085 C22.7514293,5.57705304 22.8597973,5.5912812 22.952183,5.64234666 C23.0447635,5.69516632 23.1122011,5.78287425 23.1398779,5.88578485 C23.1652157,5.98830561 23.1509875,6.0966736 23.0999221,6.18905923 L22.9003379,6.53638254 L22.2056912,6.13721414 L22.4052754,5.78989083 Z M16.964657,16.9348363 L16.7650728,16.8190618 L16.1743113,16.4756367 L16.7410993,14.9588747 L17.9984407,15.6852911 L16.964657,16.9348363 Z M15.7671518,18.0882926 C15.5985577,17.970764 15.5467126,17.7446725 15.6474792,17.5653586 L15.8470634,17.2182302 L16.5415151,17.6173986 L16.3419309,17.9606289 C16.2859927,18.0576923 16.1920478,18.1266892 16.0827053,18.1510525 C15.9733628,18.1752209 15.8589527,18.1526118 15.7671518,18.0882926 Z M18.4535473,15.0307952 L17.0724402,14.2324584 L20.2657874,8.69984407 L21.6468945,9.49818087 L18.4535473,15.0307952 Z M22.0460629,8.80762733 L20.6649558,8.00929053 L21.4632926,6.62818348 L22.8443997,7.42652028 L22.0460629,8.80762733 Z" id="Shape"></path>
            <path d="M6.29879157,17.8887084 L4.88591476,19.297882 L4.039631,18.4515982 C3.88390074,18.2968425 3.6324714,18.2968425 3.47674119,18.4515982 C3.40111744,18.5266372 3.35862786,18.6285733 3.35862786,18.7349922 C3.35862786,18.8414111 3.40111744,18.9435421 3.47674119,19.0183862 L4.32302495,19.86467 C4.4727131,20.0131887 4.67502596,20.0964137 4.88591476,20.0962188 C5.09797297,20.0973882 5.30204003,20.0141632 5.4527027,19.86467 L6.86168138,18.4515982 C6.99733627,18.2931393 6.9881757,18.0571076 6.84082638,17.9097583 C6.69328221,17.7622141 6.45725049,17.7530535 6.29879157,17.8887084 Z" id="Shape"></path>
            <path d="M1.5966736,18.962448 C1.5966736,20.8364735 3.1157744,22.3553794 4.98960499,22.3553794 C6.86343558,22.3553794 8.38253638,20.8364735 8.38253638,18.962448 C8.38253638,18.7420088 8.20380719,18.5632796 7.98336798,18.5632796 C7.76292878,18.5632796 7.58419958,18.7420088 7.58419958,18.962448 C7.58419958,20.3954002 6.42255717,21.5570426 4.98960499,21.5570426 C3.55665281,21.5570426 2.3950104,20.3954002 2.3950104,18.962448 C2.3950104,17.5294958 3.55665281,16.3678534 4.98960499,16.3678534 C5.55132534,16.3662942 6.09803795,16.5485317 6.54632278,16.8868893 C6.7227131,17.0192308 6.97297297,16.983368 7.10511957,16.8069777 C7.23746101,16.6305873 7.20179316,16.3805224 7.02540279,16.2481809 C5.99727128,15.477131 4.62162162,15.3531705 3.47225833,15.9277547 C2.32270009,16.5025338 1.5966736,17.6774298 1.5966736,18.962448 Z" id="Shape"></path>
            <path d="M14.3700624,3.19529623 C14.5905016,3.19529623 14.7692308,3.01676198 14.7692308,2.79612783 C14.7692308,2.57568868 14.5905016,2.39695943 14.3700624,2.39695943 L3.99168399,2.39695943 C3.77124479,2.39695943 3.59251559,2.57568868 3.59251559,2.79612783 L3.59251559,4.39280143 C3.59251559,4.61343558 3.77124479,4.79196983 3.99168399,4.79196983 L14.3700624,4.79196983 C14.5905016,4.79196983 14.7692308,4.61343558 14.7692308,4.39280143 C14.7692308,4.17236228 14.5905016,3.99363303 14.3700624,3.99363303 L4.39085239,3.99363303 L4.39085239,3.19529623 L14.3700624,3.19529623 Z" id="Shape"></path>
            <path d="M5.18918919,5.59030663 C4.96874999,5.59030663 4.79002079,5.76903588 4.79002079,5.98947503 C4.79002079,6.21010917 4.96874999,6.38864343 5.18918919,6.38864343 L13.1725572,6.38864343 C13.3929964,6.38864343 13.5717256,6.21010917 13.5717256,5.98947503 C13.5717256,5.76903588 13.3929964,5.59030663 13.1725572,5.59030663 L5.18918919,5.59030663 Z" id="Shape"></path>
            <path d="M15.5675676,8.38448542 L6.78586279,8.38448542 C6.56542358,8.38448542 6.38669439,8.56321467 6.38669439,8.78365382 C6.38669439,9.00428797 6.56542358,9.18282222 6.78586279,9.18282222 L15.5675676,9.18282222 C15.7880068,9.18282222 15.966736,9.00428797 15.966736,8.78365382 C15.966736,8.56321467 15.7880068,8.38448542 15.5675676,8.38448542 Z" id="Shape"></path>
            <path d="M11.5758836,11.1786642 C11.5758836,10.9582251 11.3971544,10.7794958 11.1767152,10.7794958 L3.19334719,10.7794958 C2.97290799,10.7794958 2.79417879,10.9582251 2.79417879,11.1786642 C2.79417879,11.3992984 2.97290799,11.5778326 3.19334719,11.5778326 L11.1767152,11.5778326 C11.3971544,11.5778326 11.5758836,11.3992984 11.5758836,11.1786642 Z" id="Shape"></path>
            <path d="M15.5675676,10.7794958 L12.7733888,10.7794958 C12.5529496,10.7794958 12.3742204,10.9582251 12.3742204,11.1786642 C12.3742204,11.3992984 12.5529496,11.5778326 12.7733888,11.5778326 L15.5675676,11.5778326 C15.7880068,11.5778326 15.966736,11.3992984 15.966736,11.1786642 C15.966736,10.9582251 15.7880068,10.7794958 15.5675676,10.7794958 Z" id="Shape"></path>
            <path d="M7.18503119,13.5736746 C7.40547039,13.5736746 7.58419958,13.3951404 7.58419958,13.1745062 C7.58419958,12.9540671 7.40547039,12.7753378 7.18503119,12.7753378 L3.19334719,12.7753378 C2.97290799,12.7753378 2.79417879,12.9540671 2.79417879,13.1745062 C2.79417879,13.3951404 2.97290799,13.5736746 3.19334719,13.5736746 L7.18503119,13.5736746 Z" id="Shape"></path>
            <path d="M8.78170478,13.5736746 L11.5758836,13.5736746 C11.7963228,13.5736746 11.975052,13.3951404 11.975052,13.1745062 C11.975052,12.9540671 11.7963228,12.7753378 11.5758836,12.7753378 L8.78170478,12.7753378 C8.56126558,12.7753378 8.38253638,12.9540671 8.38253638,13.1745062 C8.38253638,13.3951404 8.56126558,13.5736746 8.78170478,13.5736746 Z" id="Shape"></path>
            <path d="M17.962578,18.3636954 C17.7421388,18.3636954 17.5634096,18.5424246 17.5634096,18.7628638 L17.5634096,22.7545478 C17.5634096,22.9751819 17.3846804,23.1537162 17.1642412,23.1537162 L1.1975052,23.1537162 C0.977065996,23.1537162 0.798336798,22.9751819 0.798336798,22.7545478 L0.798336798,1.19945424 C0.798336798,0.979015085 0.977065996,0.800285838 1.1975052,0.800285838 L17.1642412,0.800285838 C17.3846804,0.800285838 17.5634096,0.979015085 17.5634096,1.19945424 L17.5634096,8.69594595 C17.5634096,8.91638515 17.7421388,9.09511435 17.962578,9.09511435 C18.1830172,9.09511435 18.3617464,8.91638515 18.3617464,8.69594595 L18.3617464,1.19945424 C18.3617464,0.538136682 17.8255587,0.00194906445 17.1642412,0.00194906445 L1.1975052,0.00194906445 C0.536187642,0.00194906445 0,0.538136682 0,1.19945424 L0,22.7545478 C0,23.4160603 0.536187642,23.952053 1.1975052,23.952053 L17.1642412,23.952053 C17.8255587,23.952053 18.3617464,23.4160603 18.3617464,22.7545478 L18.3617464,18.7628638 C18.3617464,18.5424246 18.1830172,18.3636954 17.962578,18.3636954 Z" id="Shape"></path>
        </g>
    </g>
</svg>