<?xml version="1.0" encoding="UTF-8"?>
<svg width="24px" height="24px" viewBox="0 0 24 24" version="1.1" xmlns="http://www.w3.org/2000/svg" xmlns:xlink="http://www.w3.org/1999/xlink">
    <!-- Generator: Sketch 51.3 (57544) - http://www.bohemiancoding.com/sketch -->
    <title>Artboard</title>
    <desc>Created with Sketch.</desc>
    <defs></defs>
    <g id="Artboard" stroke="none" stroke-width="1" fill="none" fill-rule="evenodd">
        <g id="driving-license" transform="translate(0.000000, 4.000000)" fill="#000000" fill-rule="nonzero">
            <path d="M22.8962818,0 L19.5367984,0 C19.3422622,0 19.1845479,0.157714286 19.1845479,0.352250489 C19.1845479,0.546786693 19.3422622,0.704500978 19.5367984,0.704500978 L22.8962818,0.704500978 C23.1164149,0.704500978 23.295499,0.883585127 23.295499,1.1037182 L23.295499,14.2544031 C23.295499,14.4745362 23.1164149,14.6536204 22.8962818,14.6536204 L1.1037182,14.6536204 C0.883585127,14.6536204 0.704500978,14.4745362 0.704500978,14.2544031 L0.704500978,1.1037182 C0.704500978,0.883585127 0.883585127,0.704500978 1.1037182,0.704500978 L17.8211037,0.704500978 C18.0156399,0.704500978 18.1733542,0.546786693 18.1733542,0.352250489 C18.1733542,0.157714286 18.0156399,0 17.8211037,0 L1.1037182,0 C0.495123288,0 0,0.495123288 0,1.1037182 L0,14.2544031 C0,14.862998 0.495123288,15.3581213 1.1037182,15.3581213 L22.8962818,15.3581213 C23.5048767,15.3581213 24,14.862998 24,14.2544031 L24,1.1037182 C24,0.495123288 23.5048767,0 22.8962818,0 Z" id="Shape"></path>
            <path d="M9.7221135,2.98238748 C9.7221135,2.78785127 9.56439922,2.63013699 9.36986301,2.63013699 L2.60665362,2.63013699 C2.41211742,2.63013699 2.25440313,2.78785127 2.25440313,2.98238748 L2.25440313,10.4970646 C2.25440313,10.6916008 2.41211742,10.8493151 2.60665362,10.8493151 L9.36986301,10.8493151 C9.56439922,10.8493151 9.7221135,10.6916008 9.7221135,10.4970646 L9.7221135,2.98238748 Z M4.46183953,10.1448141 L4.46183953,8.99412916 C4.46183953,8.77399609 4.64092368,8.59491194 4.86105675,8.59491194 L7.11545988,8.59491194 C7.33559295,8.59491194 7.5146771,8.77399609 7.5146771,8.99412916 L7.5146771,10.1448141 L4.46183953,10.1448141 Z M9.01761252,10.1448141 L8.21917808,10.1448141 L8.21917808,8.99412916 C8.21917808,8.38553425 7.72405479,7.89041096 7.11545988,7.89041096 L4.86105675,7.89041096 C4.25246184,7.89041096 3.75733855,8.38553425 3.75733855,8.99412916 L3.75733855,10.1448141 L2.95890411,10.1448141 L2.95890411,3.33463796 L9.01761252,3.33463796 L9.01761252,10.1448141 Z" id="Shape"></path>
            <path d="M5.98825832,7.84344423 C7.01119374,7.84344423 7.84344423,7.01119374 7.84344423,5.98825832 C7.84344423,4.9653229 7.01119374,4.13307241 5.98825832,4.13307241 C4.9653229,4.13307241 4.13307241,4.9653229 4.13307241,5.98825832 C4.13307241,7.01119374 4.9653229,7.84344423 5.98825832,7.84344423 Z M5.98825832,4.83757339 C6.6227319,4.83757339 7.13894325,5.35378474 7.13894325,5.98825832 C7.13894325,6.6227319 6.6227319,7.13894325 5.98825832,7.13894325 C5.35378474,7.13894325 4.83757339,6.6227319 4.83757339,5.98825832 C4.83757339,5.35378474 5.35378474,4.83757339 5.98825832,4.83757339 Z" id="Shape"></path>
            <path d="M11.6242661,2.63013699 C11.4297299,2.63013699 11.2720157,2.78785127 11.2720157,2.98238748 C11.2720157,3.17692368 11.4297299,3.33463796 11.6242661,3.33463796 L18.0117417,3.33463796 C18.2062779,3.33463796 18.3639922,3.17692368 18.3639922,2.98238748 C18.3639922,2.78785127 18.2062779,2.63013699 18.0117417,2.63013699 L11.6242661,2.63013699 Z" id="Shape"></path>
            <path d="M11.6242661,5.21330724 L14.630137,5.21330724 C14.8246732,5.21330724 14.9823875,5.05559295 14.9823875,4.86105675 C14.9823875,4.66652055 14.8246732,4.50880626 14.630137,4.50880626 L11.6242661,4.50880626 C11.4297299,4.50880626 11.2720157,4.66652055 11.2720157,4.86105675 C11.2720157,5.05559295 11.4297299,5.21330724 11.6242661,5.21330724 Z" id="Shape"></path>
            <path d="M21.7455969,4.86105675 C21.7455969,4.66652055 21.5878826,4.50880626 21.3933464,4.50880626 L16.1330724,4.50880626 C15.9385362,4.50880626 15.7808219,4.66652055 15.7808219,4.86105675 C15.7808219,5.05559295 15.9385362,5.21330724 16.1330724,5.21330724 L21.3933464,5.21330724 C21.5878826,5.21330724 21.7455969,5.05559295 21.7455969,4.86105675 Z" id="Shape"></path>
            <path d="M19.890411,6.38747554 L11.6242661,6.38747554 C11.4297299,6.38747554 11.2720157,6.54518982 11.2720157,6.73972603 C11.2720157,6.93426223 11.4297299,7.09197652 11.6242661,7.09197652 L19.890411,7.09197652 C20.0849472,7.09197652 20.2426614,6.93426223 20.2426614,6.73972603 C20.2426614,6.54518982 20.0849472,6.38747554 19.890411,6.38747554 Z" id="Shape"></path>
            <path d="M16.4853229,8.6183953 C16.4853229,8.4238591 16.3276086,8.26614481 16.1330724,8.26614481 L11.6242661,8.26614481 C11.4297299,8.26614481 11.2720157,8.4238591 11.2720157,8.6183953 C11.2720157,8.81293151 11.4297299,8.97064579 11.6242661,8.97064579 L16.1330724,8.97064579 C16.3276086,8.97064579 16.4853229,8.81293151 16.4853229,8.6183953 Z" id="Shape"></path>
            <path d="M19.890411,8.26614481 L17.6360078,8.26614481 C17.4414716,8.26614481 17.2837573,8.4238591 17.2837573,8.6183953 C17.2837573,8.81293151 17.4414716,8.97064579 17.6360078,8.97064579 L19.890411,8.97064579 C20.0849472,8.97064579 20.2426614,8.81293151 20.2426614,8.6183953 C20.2426614,8.4238591 20.0849472,8.26614481 19.890411,8.26614481 Z" id="Shape"></path>
            <path d="M11.6242661,10.1448141 C11.4297299,10.1448141 11.2720157,10.3025284 11.2720157,10.4970646 C11.2720157,10.6916008 11.4297299,10.8493151 11.6242661,10.8493151 L14.2544031,10.8493151 C14.4489393,10.8493151 14.6066536,10.6916008 14.6066536,10.4970646 C14.6066536,10.3025284 14.4489393,10.1448141 14.2544031,10.1448141 L11.6242661,10.1448141 Z" id="Shape"></path>
            <path d="M15.7573386,10.8493151 L19.890411,10.8493151 C20.0849472,10.8493151 20.2426614,10.6916008 20.2426614,10.4970646 C20.2426614,10.3025284 20.0849472,10.1448141 19.890411,10.1448141 L15.7573386,10.1448141 C15.5628023,10.1448141 15.4050881,10.3025284 15.4050881,10.4970646 C15.4050881,10.6916008 15.5628023,10.8493151 15.7573386,10.8493151 Z" id="Shape"></path>
            <path d="M2.60665362,12.0234834 C2.41211742,12.0234834 2.25440313,12.1811977 2.25440313,12.3757339 C2.25440313,12.5702701 2.41211742,12.7279843 2.60665362,12.7279843 L4.4853229,12.7279843 C4.6798591,12.7279843 4.83757339,12.5702701 4.83757339,12.3757339 C4.83757339,12.1811977 4.6798591,12.0234834 4.4853229,12.0234834 L2.60665362,12.0234834 Z" id="Shape"></path>
            <path d="M9.36986301,12.0234834 L5.98825832,12.0234834 C5.79372211,12.0234834 5.63600783,12.1811977 5.63600783,12.3757339 C5.63600783,12.5702701 5.79372211,12.7279843 5.98825832,12.7279843 L9.36986301,12.7279843 C9.56439922,12.7279843 9.7221135,12.5702701 9.7221135,12.3757339 C9.7221135,12.1811977 9.56439922,12.0234834 9.36986301,12.0234834 Z" id="Shape"></path>
        </g>
    </g>
</svg>