<?xml version="1.0" encoding="UTF-8"?>
<svg width="24px" height="24px" viewBox="0 0 24 24" version="1.1" xmlns="http://www.w3.org/2000/svg" xmlns:xlink="http://www.w3.org/1999/xlink">
    <!-- Generator: Sketch 51.3 (57544) - http://www.bohemiancoding.com/sketch -->
    <title>Artboard</title>
    <desc>Created with Sketch.</desc>
    <defs></defs>
    <g id="Artboard" stroke="none" stroke-width="1" fill="none" fill-rule="evenodd">
        <g id="selfie" transform="translate(2.000000, 0.000000)" fill="#000000" fill-rule="nonzero">
            <path d="M19.2973099,21.517848 C19.2421988,21.2690526 19.1894737,21.0124444 19.1384327,20.7642105 C18.8894971,19.552655 18.6321404,18.2998363 17.9639766,17.2168421 C17.1972865,15.9740819 15.9968187,15.149193 14.2939415,14.6948772 C14.1088655,14.6454737 13.9260351,14.5942924 13.7618713,14.5411462 C13.7432047,14.5337544 13.7243509,14.5273918 13.7053099,14.5225263 C13.4695673,14.4432749 13.2791579,14.3595789 13.1886316,14.2706901 C13.1034854,14.1870877 13.0655906,14.0400468 13.011462,13.7430175 C14.705731,12.5058713 15.9444211,10.5003977 15.9444211,8.74287719 L15.9444211,7.17847953 C17.3389006,6.50423392 18.314152,5.02825731 18.914386,2.6914152 C18.92,2.66961404 18.9240234,2.6474386 18.9264561,2.62502924 C18.9507368,2.40145029 18.8614269,2.19985965 18.6874854,2.08580117 C18.3462924,1.86189474 17.9982222,2.06007018 17.3046082,2.45506433 C16.8682105,2.70357895 16.2808421,3.03808187 15.7534971,3.20893567 C15.7750175,3.15611696 15.7960234,3.10465497 15.8165146,3.05440936 C16.3541053,1.7365614 16.6239532,1.0751345 16.3772164,0.363555556 C16.3315088,0.231578947 16.2295205,0.126690058 16.0989006,0.0772397661 C15.9683275,0.0277894737 15.8224094,0.038877193 15.7007251,0.107461988 C13.6993684,1.23574269 13.0891696,1.02867836 12.1655673,0.715134503 C11.7267836,0.566175439 11.2294737,0.397380117 10.5386199,0.332538012 C8.42923977,0.133239766 6.68495906,0.625497076 5.49426901,1.75574269 C4.29529825,2.8937076 3.70933333,4.65567251 3.79901754,6.85146199 L3.79901754,8.74278363 C3.79901754,9.36860819 3.95709942,10.0419181 4.25992982,10.7215439 L2.45759064,10.7215439 C1.67359064,10.7215439 1.03569591,11.359345 1.03569591,12.1432982 L1.03569591,16.3099883 C0.778666667,16.2756491 0.560701754,16.3271111 0.385777778,16.4647018 C0.0492631579,16.7292632 0.0298011696,17.1910643 0.0531929825,17.568655 L0.0531929825,22.1076023 C0.0531929825,23.1510643 0.901614035,23.9999532 1.94446784,23.9999532 L5.24215205,23.9999532 L8.53454971,23.9999532 C8.79476023,23.9999532 9.0057076,23.7890058 9.0057076,23.5287953 C9.0057076,23.2685848 8.79476023,23.0576374 8.53454971,23.0576374 L5.71330994,23.0576374 L5.71330994,21.9941053 L6.82530994,21.9941053 C7.61005848,21.9941053 8.2485614,21.3557427 8.2485614,20.5710877 L8.2485614,17.545076 C8.76851462,17.7467602 9.32126316,17.8499649 9.87663158,17.8499649 C10.2939883,17.8499649 10.7129357,17.7918129 11.1202339,17.6738713 C12.250386,17.3465731 13.1963977,16.5960702 13.8197895,15.5418947 C13.8938947,15.5627602 13.9704795,15.5837661 14.0510409,15.6052865 C17.2943158,16.4705497 17.7211696,18.5481637 18.2153918,20.9537778 C18.2670877,21.2054737 18.3205614,21.4656842 18.3772632,21.7215439 C18.5058246,22.3018947 18.5069006,22.6760234 18.3803977,22.8335439 C18.2610994,22.9821754 17.9253801,23.0575439 17.3826433,23.0575439 L15.1925614,23.0575439 L15.1925614,21.4234386 C15.1925614,21.1632281 14.981614,20.9522807 14.7214035,20.9522807 C14.461193,20.9522807 14.2502456,21.1632281 14.2502456,21.4234386 L14.2502456,23.0575439 L12.7364678,23.0575439 C12.4762573,23.0575439 12.2653099,23.2684912 12.2653099,23.5287018 C12.2653099,23.7889123 12.4763509,24 12.7365146,24 L17.3826901,24 C17.9739415,24 18.7051696,23.9344561 19.1152749,23.4235322 C19.5350175,22.9007251 19.4330292,22.1304795 19.2973099,21.517848 Z M6.14297076,2.43925146 C7.13038596,1.5019883 8.61964912,1.09782456 10.4502456,1.27073684 C11.0312982,1.32533333 11.4539415,1.46877193 11.8626433,1.60753216 C12.7910175,1.92261988 13.6058947,2.1994386 15.4655439,1.296 C15.3808187,1.61988304 15.205614,2.05730994 14.9440468,2.69852632 C14.834807,2.96626901 14.7109708,3.26975439 14.5764211,3.60996491 C14.5220585,3.74732164 14.5352515,3.90212865 14.6120702,4.02825731 C14.6888421,4.15438596 14.8203041,4.23723977 14.9672515,4.25211696 C15.8870643,4.34479532 16.9699649,3.73019883 17.7631345,3.27850292 C17.1562573,5.12491228 16.2783626,6.16280702 15.0356491,6.52060819 C13.7501287,6.8908538 12.2068304,6.52098246 10.5730994,6.12949708 C9.36561404,5.84018713 8.13651462,5.54568421 6.96084211,5.54568421 C6.19069006,5.54568421 5.44327485,5.67214035 4.74016374,6.00912281 C4.80669006,4.45955556 5.27705263,3.26119298 6.14297076,2.43925146 Z M0.995508772,22.1076491 L0.995508772,17.553731 C0.995508772,17.5434854 0.995134503,17.5332398 0.994526316,17.5229942 C0.986619883,17.4020585 0.987929825,17.3185965 0.992280702,17.2621754 C0.996397661,17.2633918 1.00065497,17.2647485 1.00500585,17.2661053 L1.76467836,17.5047018 C2.04645614,17.5932632 2.18923977,17.6953918 2.18923977,17.8082339 L2.18923977,18.4366316 C2.18923977,18.8240936 2.2051462,19.1154152 2.41094737,19.3361404 C2.6345731,19.576 2.94161404,19.576 3.23854971,19.576 L4.77090058,19.576 L4.77090058,23.0576374 L1.94442105,23.0576374 C1.42119298,23.0576374 0.995508772,22.6314854 0.995508772,22.1076491 Z M7.30624561,13.850152 L7.30624561,13.8526316 L7.30624561,20.5711345 C7.30624561,20.8361637 7.09052632,21.0517895 6.82535673,21.0517895 L5.71335673,21.0517895 L5.71335673,19.4283041 C5.71335673,18.9901754 5.35681871,18.6336842 4.91864327,18.6336842 L3.23864327,18.6336842 C3.21192982,18.6336842 3.1737076,18.6336842 3.13492398,18.6331228 C3.13291228,18.584655 3.13169591,18.5207485 3.13169591,18.4366316 L3.13169591,17.8082339 C3.13169591,17.4151111 2.94357895,16.887345 2.04720468,16.6057076 L1.97810526,16.584 L1.97810526,12.143345 C1.97810526,11.8789708 2.19321637,11.6639532 2.45763743,11.6639532 L5.03373099,11.6639532 C5.03396491,11.6639532 5.03419883,11.664 5.03443275,11.664 C5.03466667,11.664 5.03490058,11.6639532 5.0351345,11.6639532 L6.82535673,11.6639532 C7.09052632,11.6639532 7.30624561,11.8789708 7.30624561,12.143345 L7.30624561,13.850152 Z M10.858152,16.7687953 C9.98736842,17.0209591 9.05047953,16.9257544 8.2485614,16.5123275 L8.2485614,14.5792281 C8.26722807,14.586386 8.28617544,14.5943392 8.30474854,14.6012164 C8.86849123,14.8116959 9.36991813,14.9168187 9.87167251,14.9168187 C10.3710877,14.9168187 10.8708304,14.8125848 11.4324678,14.6042105 C11.6804678,14.5122339 11.9244912,14.4016374 12.1629942,14.2754152 C12.2316725,14.5302456 12.3324912,14.7505965 12.5283743,14.9429708 C12.6342456,15.046924 12.7611696,15.1345965 12.9133567,15.2135673 C12.414269,15.979883 11.699462,16.525193 10.858152,16.7687953 Z M11.1047953,13.7207485 C10.1922807,14.0592749 9.54577778,14.0586667 8.63335673,13.7180351 C8.50821053,13.6716257 8.37936842,13.6165146 8.24860819,13.5550877 L8.24860819,12.143345 C8.24860819,11.3593918 7.61015205,10.7215906 6.82535673,10.7215906 L5.30966082,10.7215906 C4.94226901,10.0356023 4.74138012,9.34095906 4.74138012,8.74283041 L4.74138012,7.08987135 C6.29235088,6.07359064 8.26718129,6.54596491 10.3534503,7.04584795 C11.5243977,7.32636257 12.7230409,7.61361404 13.8579649,7.61361404 C14.2481871,7.61361404 14.6307368,7.57890058 15.002152,7.49904094 L15.002152,8.74287719 C15.002152,10.6245614 13.1810058,12.9506433 11.1047953,13.7207485 Z" id="Shape"></path>
            <path d="M3.73983626,13.3107836 C3.47962573,13.3107836 3.26867836,13.521731 3.26867836,13.7819415 L3.26867836,14.5323041 C3.26867836,14.7925146 3.47962573,15.003462 3.73983626,15.003462 C4.00004678,15.003462 4.21099415,14.7925146 4.21099415,14.5323041 L4.21099415,13.7819883 C4.21099415,13.5217778 4.00004678,13.3107836 3.73983626,13.3107836 Z" id="Shape"></path>
            <path d="M11.8162807,8.59382456 C11.5560702,8.59382456 11.3451228,8.80477193 11.3451228,9.06498246 L11.3451228,9.07026901 C11.3451228,9.33047953 11.5560702,9.5414269 11.8162807,9.5414269 C12.0764912,9.5414269 12.2874386,9.33047953 12.2874386,9.07026901 L12.2874386,9.06498246 C12.2874854,8.80481871 12.0764912,8.59382456 11.8162807,8.59382456 Z" id="Shape"></path>
            <path d="M7.75616374,8.59382456 C7.49595322,8.59382456 7.28500585,8.80477193 7.28500585,9.06498246 L7.28500585,9.07026901 C7.28500585,9.33047953 7.49595322,9.5414269 7.75616374,9.5414269 C8.01637427,9.5414269 8.22732164,9.33047953 8.22732164,9.07026901 L8.22732164,9.06498246 C8.22732164,8.80481871 8.01637427,8.59382456 7.75616374,8.59382456 Z" id="Shape"></path>
            <path d="M10.6361637,23.0576374 C10.3759532,23.0576374 10.1650058,23.2685848 10.1650058,23.5287953 C10.1650058,23.7890058 10.3759532,24 10.6361637,24 L10.6374737,24 C10.8976842,24 11.1079766,23.7890526 11.1079766,23.5288421 C11.1079766,23.2686316 10.8963743,23.0576374 10.6361637,23.0576374 Z" id="Shape"></path>
        </g>
    </g>
</svg>