<?xml version="1.0" encoding="UTF-8" standalone="no"?>
<svg width="12px" height="14px" viewBox="0 0 12 14" version="1.1" xmlns="http://www.w3.org/2000/svg" xmlns:xlink="http://www.w3.org/1999/xlink">
    <!-- Generator: Sketch 46.2 (44496) - http://www.bohemiancoding.com/sketch -->
    <title>Combined Shape</title>
    <desc>Created with Sketch.</desc>
    <defs></defs>
    <g id="Symbols" stroke="none" stroke-width="1" fill="none" fill-rule="evenodd">
        <g id="Group-7" transform="translate(-86.000000, -295.000000)" fill="#1F2020">
            <path d="M95.1405726,300.037019 L95.1405726,301.697666 L97.1474944,301.697666 L97.5842288,303.322666 L95.1405726,303.322666 L95.1405726,304.413545 L97.181519,304.413545 L97.6182535,306.038545 L95.1405726,306.038545 L95.1405726,308.466542 L93.6174613,308.466542 L93.6174613,306.038545 L90.9453574,306.038545 L90.508623,304.413545 L93.6174613,304.413545 L93.6174613,303.322666 L89.8214264,303.322666 L89.3846919,301.697666 L93.6174613,301.697666 L93.6174613,300.037019 C93.6174613,298.354169 92.2533263,296.990034 90.5704768,296.990034 C88.8876272,296.990034 87.5234923,298.354169 87.5234923,300.037019 L86,300.037019 C86,297.512795 88.0462532,295.466542 90.5704768,295.466542 C93.0947003,295.466542 95.1409535,297.512795 95.1409535,300.037019 L95.1405726,300.037019 Z" id="Combined-Shape"></path>
        </g>
    </g>
</svg>