<?xml version="1.0" encoding="UTF-8" standalone="no"?>
<svg width="19px" height="19px" viewBox="0 0 19 19" version="1.1" xmlns="http://www.w3.org/2000/svg" xmlns:xlink="http://www.w3.org/1999/xlink">
    <!-- Generator: Sketch 47.1 (45422) - http://www.bohemiancoding.com/sketch -->
    <title>close-menu</title>
    <desc>Created with Sketch.</desc>
    <defs></defs>
    <g id="Page-1" stroke="none" stroke-width="1" fill="none" fill-rule="evenodd">
        <g id="close-menu" fill-rule="nonzero" fill="#FFFFFF">
            <g id="Group-13-Copy-4" transform="translate(5.000000, 9.500000) scale(-1, 1) translate(-5.000000, -9.500000) ">
                <path d="M9.84575554,8.72857634 L0.915466474,0.151424954 C0.705100487,-0.0504749846 0.368028914,-0.0504749846 0.157662927,0.151424954 C-0.0525542865,0.35346778 -0.0525542865,0.677203067 0.157662927,0.879245893 L8.70709136,9.09041494 L0.157662927,17.3018221 C-0.0525542865,17.5036744 -0.0525542865,17.8276002 0.157662927,18.0294526 C0.260911863,18.1286164 0.399618526,18.1818182 0.534605847,18.1818182 C0.669444394,18.1818182 0.808349423,18.1323315 0.911399993,18.0294526 L9.84188742,9.45249169 C10.052055,9.25435445 10.052055,8.92671357 9.84575554,8.72857634 Z" id="Fill-1" transform="translate(5.000000, 9.090909) scale(-1, 1) translate(-5.000000, -9.090909) "></path>
            </g>
            <g id="Group-13-Copy-3" transform="translate(9.000000, 0.000000)">
                <path d="M9.84575554,8.72857634 L0.915466474,0.151424954 C0.705100487,-0.0504749846 0.368028914,-0.0504749846 0.157662927,0.151424954 C-0.0525542865,0.35346778 -0.0525542865,0.677203067 0.157662927,0.879245893 L8.70709136,9.09041494 L0.157662927,17.3018221 C-0.0525542865,17.5036744 -0.0525542865,17.8276002 0.157662927,18.0294526 C0.260911863,18.1286164 0.399618526,18.1818182 0.534605847,18.1818182 C0.669444394,18.1818182 0.808349423,18.1323315 0.911399993,18.0294526 L9.84188742,9.45249169 C10.052055,9.25435445 10.052055,8.92671357 9.84575554,8.72857634 Z" id="Fill-1" transform="translate(5.000000, 9.090909) scale(-1, 1) translate(-5.000000, -9.090909) "></path>
            </g>
        </g>
    </g>
</svg>