<?xml version="1.0" encoding="UTF-8"?>
<svg width="58px" height="58px" viewBox="0 0 58 58" version="1.1" xmlns="http://www.w3.org/2000/svg" xmlns:xlink="http://www.w3.org/1999/xlink">
    <title>Artboard</title>
    <g id="Artboard" stroke="none" stroke-width="1" fill="none" fill-rule="evenodd">
        <g id="Group-9" transform="translate(6.000000, 5.000000)" fill="#FF8301" fill-rule="nonzero">
            <g id="Group-11">
                <path d="M0.234857342,29.3988044 C0.234857342,28.7924794 0.21724933,28.1854614 0.238714336,27.5800028 C0.279967392,26.4125804 1.00105741,25.663122 2.06776756,25.6496058 C3.16197974,25.635743 3.89464074,26.3273242 3.96205426,27.5103422 C4.05378362,29.1206816 3.9570234,30.7573604 4.19716316,32.341187 C5.08879936,38.2216202 9.597792,42.8634108 15.2430884,43.8620534 C18.3555141,44.4125806 21.3158402,43.9358728 24.0633608,42.3350642 C27.6386258,40.2520028 31.1981274,38.1380966 34.7281146,35.973938 C43.4720856,30.6130136 43.3931012,16.9532881 34.274834,11.7417357 C33.5664888,11.3369415 32.846405,10.9430643 32.1840084,10.4663567 C31.3591148,9.8726816 31.1796808,8.7896491 31.682767,7.92738196 C32.168748,7.09474658 33.1559706,6.71819784 34.0070246,7.14933142 C39.0348666,9.6969704 42.8512776,13.3772015 44.328506,19.1751509 C46.2779644,26.827252 43.604565,35.0555264 36.4677862,39.4029054 C33.0280192,41.4980966 29.5691348,43.5612302 26.0911332,45.5876274 C15.562045,51.7220966 2.39276116,45.1798874 0.443805752,32.8470064 C0.26487481,31.714241 0.255651566,30.5527104 0.167611506,29.4045228 C0.190082683,29.4026166 0.212386164,29.4007104 0.234857342,29.3988044" id="Path"></path>
                <path d="M18.038419,29.5183366 C21.037315,27.7253546 24.036211,25.9323726 27.2564648,24.0070006 C24.0311802,22.0812824 21.0314456,20.2902064 17.7612185,18.3376289 C17.7612185,19.1167191 17.7659141,19.6402137 17.7603801,20.1637084 C17.745623,21.548257 17.0802077,22.3377444 15.9216005,22.3523004 C14.7039645,22.3675494 14.0063519,21.5849936 13.9867316,20.1670006 C13.9766698,19.4452679 13.9604034,18.7221488 13.9889116,18.0012824 C14.1002613,15.1821054 16.9078169,13.4440549 19.2946249,14.8085025 C22.7152748,16.7643726 26.099367,18.7923293 29.4509264,20.8724448 C31.7773638,22.3164304 31.7787054,25.6927192 29.4529386,27.1353184 C26.1010438,29.2143942 22.715107,31.2388852 19.2947925,33.1954484 C16.9386728,34.5432606 14.1545946,32.867766 13.9986379,30.0901776 C13.9518509,29.2556362 13.9629188,28.4145098 13.9979672,27.578582 C14.047605,26.3908852 14.8335931,25.6308562 15.9318299,25.650091 C16.9846215,25.6688058 17.71091,26.4361126 17.7536723,27.6045748 C17.775305,28.195304 17.7573616,28.7875928 17.7573616,29.3791884 C17.8511033,29.4256288 17.9446773,29.471896 18.038419,29.5183366" id="Fill-6"></path>
                <path d="M0.236618144,18.6284015 C0.00586933738,8.53627148 6.88137884,1.81679133 14.660934,0.296560288 C18.7510236,-0.502631048 22.5894026,0.348025994 26.1956912,2.43108736 C26.9021916,2.839174 27.6090276,3.24951336 28.29356,3.6950296 C29.2507652,4.3178166 29.5276302,5.4545675 28.9851356,6.3946397 C28.4694724,7.28827148 27.4124886,7.56292852 26.4217444,7.06005488 C24.747474,6.21043754 23.1479958,5.10539784 21.3863562,4.55452418 C13.3820892,2.05176606 5.07362292,7.7467841 4.0746617,16.3358382 C3.92574822,17.6176288 4.04129032,18.930784 4.00691278,20.2286902 C3.97203214,21.5544952 3.28246886,22.3335854 2.1729964,22.3523004 C1.07643647,22.3708418 0.313758006,21.6723292 0.24366135,20.5328058 C0.20458833,19.9003147 0.236618144,19.2633184 0.236618144,18.6284015" id="Path"></path>
                <path d="M10.8857762,24.0007624 C10.8857762,26.0508996 10.8669943,28.1013834 10.8894655,30.1513472 C10.9443018,35.1232462 16.0605195,38.4151452 20.402823,36.2638094 C21.332526,35.8033906 22.196157,35.2022642 23.1166368,34.719665 C24.0124654,34.2497156 25.0144452,34.5767048 25.5279282,35.4374122 C26.0399022,36.2956938 25.8866286,37.4093978 25.0327238,37.9696288 C23.0777314,39.2521126 21.1047956,40.4463942 18.7027274,40.7520692 C14.2088273,41.3239104 9.15834634,38.2326758 7.74886688,33.5953906 C7.38647722,32.4028418 7.16847328,31.1177588 7.14398974,29.8695854 C7.0668499,25.944156 7.1096122,22.0159538 7.11263072,18.0887913 C7.1171585,12.1891235 11.6013322,7.36209098 17.3145452,7.15882744 C19.3116292,7.0879538 21.17506,7.66412708 22.9066822,8.7010657 C26.1685246,10.6545098 29.4409316,12.5890657 32.6995878,14.5484014 C39.8286526,18.834784 39.880135,29.0177156 32.798528,33.3739322 C32.126908,33.787044 31.4547852,34.2018888 30.7638802,34.5784376 C29.7956072,35.1064376 28.7371142,34.7912318 28.224805,33.8575712 C27.7264144,32.9492102 27.971585,31.8826396 28.8647304,31.2870584 C29.5680448,30.8181488 30.3141214,30.4183798 31.0308514,29.9700908 C35.3865704,27.2455278 35.4471084,20.8163004 31.0897124,18.0941633 C27.7207128,15.9892678 24.3084476,13.9524736 20.8576126,11.9943509 C16.2474997,9.37861084 10.9159613,12.6835061 10.890304,18.1101054 C10.8810807,20.0736 10.8889624,22.0372678 10.8889624,24.0007624 L10.8857762,24.0007624 Z" id="Path"></path>
            </g>
        </g>
    </g>
</svg>