<?xml version="1.0" encoding="UTF-8"?>
<svg width="24px" height="24px" viewBox="0 0 24 24" version="1.1" xmlns="http://www.w3.org/2000/svg" xmlns:xlink="http://www.w3.org/1999/xlink">
    <title>loader copy 2</title>
    <g id="Page-5" stroke="none" stroke-width="1" fill="none" fill-rule="evenodd">
        <g id="Payment---Loan-Step-2" transform="translate(-571.000000, -580.000000)" fill="#FFFFFF" fill-rule="nonzero">
            <g id="loader-copy-2" transform="translate(571.000000, 580.000000)">
                <path d="M12.8706433,4.0474386 C12.2815906,3.98203509 11.6871579,3.98203509 11.0981053,4.0474386 L10.2597427,0.937497076 C11.4,0.760654971 12.5607485,0.760654971 13.7010058,0.937497076 L12.8706433,4.0474386 Z" id="Shape"></path>
                <path d="M7.24561404,5.55649123 L4.97005848,3.27695906 C5.86643275,2.55083041 6.8714386,1.97019883 7.94825731,1.55630409 L8.78661988,4.67022222 C8.24107602,4.90638596 7.72411696,5.20369591 7.24561404,5.55649123 Z" id="Shape"></path>
                <path d="M4.66666667,8.79017544 L1.55274854,7.95181287 C1.96664327,6.87504094 2.54727485,5.87003509 3.27340351,4.97361404 L5.55293567,7.2531462 C5.20042105,7.73038596 4.90311111,8.2459883 4.66666667,8.79017544 Z" id="Shape"></path>
                <path d="M4.03990643,12.8701754 L0.933988304,13.7045614 C0.756912281,12.5646316 0.756865497,11.4042573 0.933847953,10.2643275 L4.03995322,11.0976842 C3.97450292,11.6866901 3.97450292,12.2811696 4.03990643,12.8701754 Z" id="Shape"></path>
                <path d="M3.27340351,18.9942456 C2.54727485,18.0978713 1.96664327,17.0928655 1.55274854,16.0160468 L4.66666667,15.1776842 C4.90339181,15.7204678 5.20070175,16.2347135 5.55293567,16.7106901 L3.27340351,18.9942456 Z" id="Shape"></path>
                <path d="M7.94825731,22.4115556 C6.87148538,21.9977076 5.86647953,21.4170292 4.97005848,20.6909006 L7.24561404,18.4113684 C7.72407018,18.764117 8.24107602,19.0614737 8.78661988,19.2976374 L7.94825731,22.4115556 Z" id="Shape"></path>
                <path d="M10.2557661,23.0303626 L11.090152,19.9204211 C11.6792047,19.9858246 12.2736374,19.9858246 12.8626901,19.9204211 L13.697076,23.0303626 C12.5567719,23.2072047 11.3960234,23.2072047 10.2557661,23.0303626 Z" id="Shape"></path>
                <path d="M16.0165146,22.4115556 L15.1741754,19.2976374 C15.7197193,19.0614737 16.2366784,18.764117 16.7151813,18.4113684 L18.9947135,20.6909006 C18.0982924,21.4170292 17.0932865,21.9976608 16.0165146,22.4115556 Z" id="Shape"></path>
                <path d="M20.6833684,18.9902222 L18.4078129,16.7186433 C18.7605614,16.2401404 19.0579181,15.7231813 19.2940819,15.1776374 L22.4040234,16.0120234 C21.9901754,17.0888421 21.4094971,18.093848 20.6833684,18.9902222 Z" id="Shape"></path>
                <path d="M23.026807,13.7045614 L19.9168655,12.8701754 C19.982269,12.2811228 19.982269,11.6866901 19.9168655,11.0976374 L23.026807,10.2632515 C23.2039298,11.4035556 23.2039298,12.5643041 23.026807,13.7045614 Z" id="Shape"></path>
                <path d="M19.2940819,8.79017544 C19.0579181,8.24463158 18.7605614,7.72767251 18.4078129,7.24916959 L20.687345,4.96963743 C21.4134737,5.8660117 21.9941053,6.87101754 22.408,7.94783626 L19.2940819,8.79017544 Z" id="Shape"></path>
                <path d="M16.7151345,5.55649123 C16.2366316,5.20374269 15.7196725,4.90638596 15.1741287,4.67022222 L16.0124912,1.55630409 C17.0892632,1.97019883 18.094269,2.55083041 18.9906901,3.27695906 L16.7151345,5.55649123 Z" id="Shape"></path>
            </g>
        </g>
    </g>
</svg>