<?xml version="1.0" encoding="utf-8"?>
<!-- Generator: Adobe Illustrator 18.0.0, SVG Export Plug-In . SVG Version: 6.00 Build 0)  -->
<!DOCTYPE svg PUBLIC "-//W3C//DTD SVG 1.1//EN" "http://www.w3.org/Graphics/SVG/1.1/DTD/svg11.dtd">
<svg version="1.1" id="Layer_1" xmlns="http://www.w3.org/2000/svg" xmlns:xlink="http://www.w3.org/1999/xlink" x="0px" y="0px"
	 viewBox="0 429 58 58" enable-background="new 0 429 58 58" xml:space="preserve">
<g>
	<path fill="#009FDF" d="M16.8,450.5H3l1-2.7h13.8L16.8,450.5z M16.3,451.8H2.5l-1,2.7h13.8L16.3,451.8z M14.8,455.9H1l-1,2.7h13.8
		L14.8,455.9z"/>
	<path fill="#0A2973" d="M49.7,465.5h2.5c0.7,0.1,1.4-0.2,1.9-0.7c0.3-0.4,0.5-1,0.5-1.6c0-0.7-0.3-1.4-0.9-1.9
		c-0.5-0.3-1-0.4-1.6-0.4h-2.5L49.7,465.5z M46.5,468.3v-16.4h10.7l-0.9,2.8h-6.5v3.6h2.6c2.1,0,3.2,0.5,4,1.2
		c1.1,1,1.7,2.4,1.6,3.9c0.1,1.6-0.6,3.1-1.9,4.1c-1,0.7-2.1,0.9-4.3,0.9L46.5,468.3z M37,468.3v-13.7h-4.8v-2.7h13.2l-0.9,2.8h-4.2
		v13.7L37,468.3z M23.8,458.4h1.9c0.4,0,0.8,0,1.1-0.1c0.8-0.3,1.3-1,1.2-1.9c0.1-0.8-0.4-1.6-1.2-1.8c-0.4-0.1-0.8-0.1-1.2-0.1
		h-1.8V458.4z M23.8,461.3v4.3h2.3c0.6,0.1,1.3-0.1,1.8-0.5c0.5-0.4,0.7-1.1,0.7-1.7c0-0.5-0.1-1-0.4-1.4c-0.5-0.6-1.1-0.7-2.1-0.7
		L23.8,461.3z M29.1,459.5L29.1,459.5c0.6,0.3,1.1,0.6,1.5,0.9c1,0.8,1.5,2,1.4,3.2c0,2.2-1.2,3.9-3.2,4.4c-0.8,0.2-1.6,0.3-2.4,0.2
		h-5.9v-16.4h5.3c0.8,0,1.7,0,2.5,0.2c1.9,0.5,3.2,1.8,3.2,3.9c0,1-0.3,2-1.1,2.7C30,459,29.6,459.3,29.1,459.5L29.1,459.5z"/>
</g>
</svg>
