<?xml version="1.0" encoding="UTF-8"?>
<svg width="58px" height="58px" viewBox="0 0 58 58" version="1.1" xmlns="http://www.w3.org/2000/svg" xmlns:xlink="http://www.w3.org/1999/xlink">
    <title>Artboard</title>
    <g id="Artboard" stroke="none" stroke-width="1" fill="none" fill-rule="evenodd">
        <g id="mortgage-loan" transform="translate(4.000000, 5.000000)" fill-rule="nonzero">
            <path d="M48.0850622,47.1864407 L14.7406639,47.1864407 C11.5965366,47.1864407 9.04771784,44.6367403 9.04771784,41.4915254 L9.04771784,6.50847458 C9.04771784,3.36325973 6.49889907,0.813559322 3.35477178,0.813559322 L36.6991701,0.813559322 C39.8432974,0.813559322 42.3921162,3.36325973 42.3921162,6.50847458 L42.3921162,41.4915254 C42.3921162,43.0019109 42.991907,44.4504348 44.0595415,45.5184386 C45.127176,46.5864424 46.5751991,47.1864407 48.0850622,47.1864407 Z" id="Shape" fill="#E9EEF2"></path>
            <polygon id="Shape" fill="#DADCDE" points="28.56639 47.1864407 4.16804979 47.1864407 4.16804979 32.5423729 16.3672199 24.4067797 28.56639 32.5423729"></polygon>
            <g id="Group" transform="translate(0.914938, 21.152542)" fill="#3397E8">
                <polygon id="Shape" points="0 11.3898305 1.62655602 13.8305085 16.2655602 4.06779661 30.9045643 13.8305085 32.5311203 11.3898305 16.2655602 0"></polygon>
                <path d="M15.4522822,11.3898305 L17.0788382,11.3898305 C18.4263213,11.3898305 19.5186722,12.4825593 19.5186722,13.8305085 L19.5186722,26.0338983 L13.0124481,26.0338983 L13.0124481,13.8305085 C13.0124481,12.4825593 14.104799,11.3898305 15.4522822,11.3898305 Z" id="Shape"></path>
                <polygon id="Shape" points="6.50622407 14.6440678 9.7593361 14.6440678 9.7593361 17.8983051 6.50622407 17.8983051"></polygon>
            </g>
            <polygon id="Shape" fill="#D0D2D4" points="13.1141079 4.88135593 38.3257261 4.88135593 38.3257261 8.13559322 13.1141079 8.13559322"></polygon>
            <ellipse id="Oval" fill="#FFD33A" cx="33.4460581" cy="38.2372881" rx="8.13278008" ry="8.13559322"></ellipse>
            <path d="M48.0850622,46.3728814 C45.3913733,46.3697991 43.2084754,44.1861461 43.2053942,41.4915254 L43.2053942,6.50847458 C43.2013604,2.91561607 40.2907863,0.00403516031 36.6991701,0 L3.35477178,0 C2.90561074,0 2.54149378,0.364242915 2.54149378,0.813559322 C2.54149378,1.26287573 2.90561074,1.62711864 3.35477178,1.62711864 C6.04846071,1.63020094 8.23135861,3.8138539 8.23443983,6.50847458 L8.23443983,26.4238983 L0.448522822,31.8758644 C0.0864451136,32.1294256 -0.00691669745,32.6258415 0.238290456,32.9936949 L1.86484647,35.4343729 C2.11402241,35.8081984 2.61895642,35.9091837 2.99265975,35.6599322 L3.35477178,35.4184068 L3.35477178,47.1864407 C3.35477178,47.6357571 3.71888875,48 4.16804979,48 L48.0850622,48 C48.5342233,48 48.8983402,47.6357571 48.8983402,47.1864407 C48.8983402,46.7371243 48.5342233,46.3728814 48.0850622,46.3728814 Z M7.653861,1.62711864 L36.6991701,1.62711864 C39.3928591,1.63020094 41.5757569,3.8138539 41.5788382,6.50847458 L41.5788382,32.8474576 C39.0595879,29.0384164 34.2358114,27.4876008 29.9699046,29.1152542 L17.6469129,20.4860339 C17.3668714,20.2899179 16.9941244,20.2899179 16.714083,20.4860339 L9.86099585,25.2849153 L9.86099585,6.50847458 C9.86158017,4.63948459 9.05734267,2.86081236 7.653861,1.62711864 L7.653861,1.62711864 Z M2.76707676,33.8548475 L2.03258506,32.7527797 L17.1804979,22.1455932 L28.3104108,29.9389831 C27.8771967,30.2082294 27.4656178,30.5108405 27.0794129,30.8440678 L17.6316639,24.5434576 C17.3584657,24.3612389 17.0025301,24.3612389 16.729332,24.5434576 L2.76707676,33.8548475 Z M19.620332,46.3728814 L14.7406639,46.3728814 L14.7406639,34.9830508 C14.7417282,34.0848594 15.4693391,33.3569969 16.3672199,33.3559322 L17.9937759,33.3559322 C18.8916568,33.3569969 19.6192676,34.0848594 19.620332,34.9830508 L19.620332,46.3728814 Z M21.246888,46.3728814 L21.246888,34.9830508 C21.2448711,33.1866216 19.789584,31.7308311 17.9937759,31.7288136 L16.3672199,31.7288136 C14.5714118,31.7308311 13.1161248,33.1866216 13.1141079,34.9830508 L13.1141079,46.3728814 L4.9813278,46.3728814 L4.9813278,34.3337288 L17.1804979,26.1981356 L25.9212033,32.0271864 C24.1592426,34.1595191 23.3857016,36.9401978 23.7932897,39.6764824 C24.2008777,42.4127669 25.7512221,44.8470477 28.0580913,46.3728814 L21.246888,46.3728814 Z M25.313278,38.2372881 C25.313278,33.7441241 28.9544477,30.1016949 33.4460581,30.1016949 C37.9376685,30.1016949 41.5788382,33.7441241 41.5788382,38.2372881 C41.5788382,42.7304522 37.9376685,46.3728814 33.4460581,46.3728814 C28.9565611,46.3677815 25.3183761,42.7283381 25.313278,38.2372881 Z M38.8340249,46.3728814 C40.0484133,45.5651993 41.068039,44.4974577 41.8190602,43.2469831 C42.1599086,44.4567709 42.8429385,45.54227 43.785973,46.3728814 L38.8340249,46.3728814 Z" id="Shape" fill="#000000"></path>
            <path d="M10.6742739,34.9830508 L7.42116183,34.9830508 C6.97200078,34.9830508 6.60788382,35.3472938 6.60788382,35.7966102 L6.60788382,39.0508475 C6.60788382,39.5001639 6.97200078,39.8644068 7.42116183,39.8644068 L10.6742739,39.8644068 C11.1234349,39.8644068 11.4875519,39.5001639 11.4875519,39.0508475 L11.4875519,35.7966102 C11.4875519,35.3472938 11.1234349,34.9830508 10.6742739,34.9830508 Z M9.86099585,38.2372881 L8.23443983,38.2372881 L8.23443983,36.6101695 L9.86099585,36.6101695 L9.86099585,38.2372881 Z" id="Shape" fill="#000000"></path>
            <path d="M33.4460581,35.7966102 L35.0726141,35.7966102 C35.5217751,35.7966102 35.8858921,35.4323673 35.8858921,34.9830508 C35.8858921,34.5337344 35.5217751,34.1694915 35.0726141,34.1694915 L34.2593361,34.1694915 L34.2593361,33.3559322 C34.2593361,32.9066158 33.8952191,32.5423729 33.4460581,32.5423729 C32.996897,32.5423729 32.6327801,32.9066158 32.6327801,33.3559322 L32.6327801,34.3094237 C31.5129808,34.7060072 30.841456,35.8517218 31.0423475,37.0229225 C31.243239,38.1941233 32.2581524,39.0503695 33.4460581,39.0508475 C33.8952191,39.0508475 34.2593361,39.4150904 34.2593361,39.8644068 C34.2593361,40.3137232 33.8952191,40.6779661 33.4460581,40.6779661 L31.8195021,40.6779661 C31.370341,40.6779661 31.0062241,41.042209 31.0062241,41.4915254 C31.0062241,41.9408418 31.370341,42.3050847 31.8195021,42.3050847 L32.6327801,42.3050847 L32.6327801,43.1186441 C32.6327801,43.5679605 32.996897,43.9322034 33.4460581,43.9322034 C33.8952191,43.9322034 34.2593361,43.5679605 34.2593361,43.1186441 L34.2593361,42.1651525 C35.3791354,41.7685691 36.0506602,40.6228545 35.8497687,39.4516537 C35.6488771,38.280453 34.6339637,37.4242067 33.4460581,37.4237288 C32.996897,37.4237288 32.6327801,37.0594859 32.6327801,36.6101695 C32.6327801,36.1608531 32.996897,35.7966102 33.4460581,35.7966102 Z" id="Shape" fill="#000000"></path>
            <path d="M13.1141079,8.94915254 L38.3257261,8.94915254 C38.7748872,8.94915254 39.1390041,8.58490963 39.1390041,8.13559322 L39.1390041,4.88135593 C39.1390041,4.43203953 38.7748872,4.06779661 38.3257261,4.06779661 L13.1141079,4.06779661 C12.6649468,4.06779661 12.3008299,4.43203953 12.3008299,4.88135593 L12.3008299,8.13559322 C12.3008299,8.58490963 12.6649468,8.94915254 13.1141079,8.94915254 Z M13.9273859,5.69491525 L37.5124481,5.69491525 L37.5124481,7.3220339 L13.9273859,7.3220339 L13.9273859,5.69491525 Z" id="Shape" fill="#000000"></path>
            <path d="M37.5124481,10.5762712 L13.9273859,10.5762712 C13.4782249,10.5762712 13.1141079,10.9405141 13.1141079,11.3898305 C13.1141079,11.8391469 13.4782249,12.2033898 13.9273859,12.2033898 L37.5124481,12.2033898 C37.9616092,12.2033898 38.3257261,11.8391469 38.3257261,11.3898305 C38.3257261,10.9405141 37.9616092,10.5762712 37.5124481,10.5762712 Z" id="Shape" fill="#000000"></path>
            <path d="M37.5124481,13.8305085 L13.9273859,13.8305085 C13.4782249,13.8305085 13.1141079,14.1947514 13.1141079,14.6440678 C13.1141079,15.0933842 13.4782249,15.4576271 13.9273859,15.4576271 L37.5124481,15.4576271 C37.9616092,15.4576271 38.3257261,15.0933842 38.3257261,14.6440678 C38.3257261,14.1947514 37.9616092,13.8305085 37.5124481,13.8305085 Z" id="Shape" fill="#000000"></path>
            <path d="M37.5124481,17.0847458 L13.9273859,17.0847458 C13.4782249,17.0847458 13.1141079,17.4489887 13.1141079,17.8983051 C13.1141079,18.3476215 13.4782249,18.7118644 13.9273859,18.7118644 L37.5124481,18.7118644 C37.9616092,18.7118644 38.3257261,18.3476215 38.3257261,17.8983051 C38.3257261,17.4489887 37.9616092,17.0847458 37.5124481,17.0847458 Z" id="Shape" fill="#000000"></path>
            <path d="M37.5124481,20.3389831 L26.126556,20.3389831 C25.677395,20.3389831 25.313278,20.703226 25.313278,21.1525424 C25.313278,21.6018588 25.677395,21.9661017 26.126556,21.9661017 L37.5124481,21.9661017 C37.9616092,21.9661017 38.3257261,21.6018588 38.3257261,21.1525424 C38.3257261,20.703226 37.9616092,20.3389831 37.5124481,20.3389831 Z" id="Shape" fill="#000000"></path>
        </g>
    </g>
</svg>