<?xml version="1.0" encoding="UTF-8"?>
<svg width="58px" height="58px" viewBox="0 0 58 58" version="1.1" xmlns="http://www.w3.org/2000/svg" xmlns:xlink="http://www.w3.org/1999/xlink">
    <title>Artboard</title>
    <g id="Artboard" stroke="none" stroke-width="1" fill="none" fill-rule="evenodd">
        <g id="credit-card" transform="translate(0.000000, 8.000000)" fill-rule="nonzero">
            <path d="M53.46875,0 L4.53125,0 C2.03283203,0 0,2.04807065 0,4.56521739 L0,37.4347826 C0,39.9519293 2.03283203,42 4.53125,42 L53.46875,42 C55.967168,42 58,39.9519293 58,37.4347826 L58,4.56521739 C58,2.04807065 55.967168,0 53.46875,0 Z" id="Shape" fill="#5D647F"></path>
            <path d="M19.9375,18.2608696 L9.0625,18.2608696 C8.06143359,18.2608696 7.25,17.4433533 7.25,16.4347826 L7.25,9.13043478 C7.25,8.12186413 8.06143359,7.30434783 9.0625,7.30434783 L19.9375,7.30434783 C20.9385664,7.30434783 21.75,8.12186413 21.75,9.13043478 L21.75,16.4347826 C21.75,17.4433533 20.9385664,18.2608696 19.9375,18.2608696 Z" id="Shape" fill="#FFD100"></path>
            <g id="Group" transform="translate(7.250000, 25.565217)" fill="#B8BAC0">
                <path d="M6.34375,4.56521739 L1.8125,4.56521739 C0.811433594,4.56521739 0,3.74770109 0,2.73913043 L0,1.82608696 C0,0.817516304 0.811433594,0 1.8125,0 L6.34375,0 C7.34481641,0 8.15625,0.817516304 8.15625,1.82608696 L8.15625,2.73913043 C8.15625,3.74770109 7.34481641,4.56521739 6.34375,4.56521739 Z" id="Shape"></path>
                <path d="M18.125,4.56521739 L13.59375,4.56521739 C12.5926836,4.56521739 11.78125,3.74770109 11.78125,2.73913043 L11.78125,1.82608696 C11.78125,0.817516304 12.5926836,0 13.59375,0 L18.125,0 C19.1260664,0 19.9375,0.817516304 19.9375,1.82608696 L19.9375,2.73913043 C19.9375,3.74770109 19.1260664,4.56521739 18.125,4.56521739 Z" id="Shape"></path>
                <path d="M29.90625,4.56521739 L25.375,4.56521739 C24.3739336,4.56521739 23.5625,3.74770109 23.5625,2.73913043 L23.5625,1.82608696 C23.5625,0.817516304 24.3739336,0 25.375,0 L29.90625,0 C30.9073164,0 31.71875,0.817516304 31.71875,1.82608696 L31.71875,2.73913043 C31.71875,3.74770109 30.9073164,4.56521739 29.90625,4.56521739 Z" id="Shape"></path>
                <path d="M41.6875,4.56521739 L37.15625,4.56521739 C36.1551836,4.56521739 35.34375,3.74770109 35.34375,2.73913043 L35.34375,1.82608696 C35.34375,0.817516304 36.1551836,0 37.15625,0 L41.6875,0 C42.6885664,0 43.5,0.817516304 43.5,1.82608696 L43.5,2.73913043 C43.5,3.74770109 42.6885664,4.56521739 41.6875,4.56521739 Z" id="Shape"></path>
            </g>
            <path d="M26.28125,35.6086957 L8.15625,35.6086957 C7.65532031,35.6086957 7.25,35.1998804 7.25,34.6956522 C7.25,34.1914239 7.65532031,33.7826087 8.15625,33.7826087 L26.28125,33.7826087 C26.7821797,33.7826087 27.1875,34.1914239 27.1875,34.6956522 C27.1875,35.1998804 26.7821797,35.6086957 26.28125,35.6086957 Z" id="Shape" fill="#8A8895"></path>
            <path d="M38.0625,35.6086957 L29.90625,35.6086957 C29.4053203,35.6086957 29,35.1998804 29,34.6956522 C29,34.1914239 29.4053203,33.7826087 29.90625,33.7826087 L38.0625,33.7826087 C38.5634297,33.7826087 38.96875,34.1914239 38.96875,34.6956522 C38.96875,35.1998804 38.5634297,35.6086957 38.0625,35.6086957 Z" id="Shape" fill="#8A8895"></path>
            <path d="M41.6875,16.4350109 C40.6918711,17.5556576 39.245043,18.2608696 37.63475,18.2608696 C34.6316641,18.2608696 32.19725,15.8082065 32.19725,12.7826087 C32.19725,9.75701087 34.6316641,7.30434783 37.63475,7.30434783 C39.2448164,7.30434783 40.691418,8.00933152 41.6870469,9.12963587" id="Shape" fill="#FF4F19"></path>
            <polygon id="Shape" fill="#FF9500" points="21.75 13.6956522 12.6875 13.6956522 12.6875 11.8695652 21.75 11.8695652 21.75 10.0434783 12.6875 10.0434783 12.6875 7.30434783 10.875 7.30434783 10.875 18.2608696 12.6875 18.2608696 12.6875 15.5217391 21.75 15.5217391"></polygon>
            <ellipse id="Oval" fill="#FFD100" cx="45.3125" cy="12.7826087" rx="5.4375" ry="5.47826087"></ellipse>
        </g>
    </g>
</svg>