<?xml version="1.0" encoding="UTF-8"?>
<svg width="58px" height="58px" viewBox="0 0 58 58" version="1.1" xmlns="http://www.w3.org/2000/svg" xmlns:xlink="http://www.w3.org/1999/xlink">
    <title>Artboard</title>
    <g id="Artboard" stroke="none" stroke-width="1" fill="none" fill-rule="evenodd">
        <g id="money" transform="translate(5.000000, 5.000000)" fill="#65A02A" fill-rule="nonzero">
            <path d="M18.0582505,17.3798439 C21.3699548,19.2919589 26.7317618,19.2919589 30.0237536,17.3798439 C33.3256016,15.467729 33.2960329,12.3630062 29.9843285,10.4508912 C26.6726242,8.53877618 21.3108172,8.53877618 18.0188255,10.4508912 C14.7268337,12.3630062 14.7465462,15.4578727 18.0582505,17.3798439 Z M19.576115,14.0681396 C19.8323778,13.9892895 20.0787844,13.9005832 20.325191,13.8217331 C20.51246,13.7625955 20.6208789,13.7527392 20.699729,13.7921643 C20.7490103,13.8217331 20.7785791,13.8611581 20.8180041,13.930152 C20.9855606,14.2455524 21.2615359,14.5215277 21.6065051,14.7777906 C21.6656427,14.8270719 21.7247803,14.8664969 21.7937741,14.905922 C21.9810431,15.0143409 22.1880246,15.093191 22.4442875,15.1523285 C23.0849446,15.2903162 23.6566078,15.0439097 23.587614,14.6496591 C23.5679014,14.5116715 23.4989076,14.3933963 23.4102012,14.2652649 C23.1933634,13.9400082 22.9173881,13.6344641 22.7695441,13.2993511 C22.5329938,12.7474004 22.6414127,12.2545873 23.400345,11.8603368 C24.2676961,11.4168049 25.2237536,11.3970924 26.2488049,11.6632115 C26.662768,11.7814867 26.662768,11.7814867 26.9880246,11.5942177 C27.0964435,11.5350801 27.2048624,11.4660862 27.3132813,11.4069487 C27.5596879,11.268961 27.6483943,11.268961 27.8948008,11.4069487 C27.9736509,11.4463737 28.0426448,11.495655 28.1214949,11.5350801 C28.6340205,11.830768 28.6340205,11.830768 28.1313511,12.1363121 C27.7666694,12.3432936 27.7666694,12.3432936 28.0722136,12.5897002 C28.3087639,12.7769692 28.4861766,12.9740945 28.6340205,13.1909322 C28.7128706,13.3092074 28.6635893,13.3979138 28.4763203,13.4570513 C28.1904887,13.5457577 27.9046571,13.6443203 27.6188255,13.7330267 C27.4414127,13.782308 27.3329938,13.7921643 27.2541437,13.7527392 C27.2147187,13.7231704 27.1752936,13.6837454 27.1358686,13.6246078 C26.9485996,13.3190637 26.662768,13.0628008 26.2783737,12.8361068 C26.2290924,12.806538 26.1699548,12.7769692 26.1108172,12.7474004 C25.9826858,12.6882628 25.8644107,12.6291253 25.7067105,12.5897002 C25.1547598,12.4615688 24.6718029,12.6685503 24.7407967,13.0135195 C24.7703655,13.1909322 24.8689281,13.3486324 24.9872033,13.5063326 C25.1843285,13.782308 25.3913101,14.0582834 25.539154,14.344115 C26.0023984,15.2706037 24.9970595,16.1773799 23.3904887,16.2660862 C22.8089692,16.295655 22.2570185,16.2266612 21.7543491,16.0591047 C21.5375113,15.9901109 21.3699548,15.9999671 21.1925421,16.108386 C21.0249856,16.2168049 20.8377166,16.3153676 20.6701602,16.4139302 C20.51246,16.5026366 20.3449035,16.5124928 20.1872033,16.4237864 C20.0689281,16.3646489 19.9605092,16.295655 19.8422341,16.2365175 C19.763384,16.1872361 19.6845339,16.1478111 19.6056838,16.0985298 C19.4381273,15.9999671 19.4578398,15.9014045 19.61554,15.8028419 C19.7436715,15.7239918 19.8718029,15.6549979 19.990078,15.5761478 C20.2759097,15.4085914 20.2759097,15.3987351 20.0393593,15.2114661 C19.7436715,14.9749158 19.4775524,14.7285092 19.3099959,14.4525339 C19.201577,14.2356961 19.2311458,14.1864148 19.576115,14.0681396 Z M31.0980862,17.9909322 C32.0147187,17.458694 33.4931581,17.458694 34.4097906,17.9909322 C35.326423,18.5231704 35.3362793,19.3806653 34.4196468,19.9129035 C33.5128706,20.4451417 32.0245749,20.4451417 31.1079425,19.9129035 C30.1913101,19.3806653 30.1814538,18.5231704 31.0980862,17.9909322 Z M13.6327885,7.90797536 C14.5494209,7.37573717 16.0278604,7.37573717 16.9543491,7.90797536 C17.8709815,8.44021355 17.8808378,9.29770842 16.9642053,9.82994661 C16.0574292,10.3621848 14.5691335,10.3621848 13.652501,9.82994661 C12.7260123,9.29770842 12.7161561,8.44021355 13.6327885,7.90797536 Z M1.22375359,12.018037 L27.3724189,27.1079754 C28.8804271,27.9851828 31.3346366,27.9851828 32.8327885,27.1079754 L46.838538,18.9667023 C48.3366899,18.0894949 48.3366899,16.670193 46.8286817,15.8028419 L20.6800164,0.703047228 C19.1720082,-0.174160164 16.7177988,-0.164303901 15.2097906,0.703047228 L1.20404107,8.85417659 C-0.294110883,9.72152772 -0.28425462,11.1408296 1.22375359,12.018037 Z M6.90096099,8.81475154 C6.73340452,8.71618891 6.55599179,8.63733881 6.36872279,8.55848871 L14.7366899,3.69935113 C14.8648214,3.80777002 15.0126653,3.90633265 15.1802218,4.00489528 C16.7079425,4.89195893 19.1917207,4.88210267 20.7095852,4.00489528 C20.8869979,3.90633265 21.0348419,3.79791376 21.1629733,3.6796386 L41.5260123,15.4381602 C41.250037,15.5367228 41.0036304,15.6451417 40.7670801,15.7831294 C39.2393593,16.670193 39.2492156,18.0993511 40.7867926,18.9864148 C41.0233429,19.1244025 41.2796057,19.2328214 41.5555811,19.331384 L33.1087639,24.2398029 C32.9412074,24.0821027 32.7440821,23.9342587 32.5075318,23.796271 C30.9699548,22.9092074 28.4960329,22.9092074 26.9781684,23.796271 C26.8598932,23.8652649 26.7613306,23.9342587 26.662768,24.0131088 L6.35886653,12.2841561 C6.55599179,12.205306 6.74326078,12.1165996 6.91081725,12.018037 C8.43853799,11.1408296 8.42868172,9.7018152 6.90096099,8.81475154 Z M0.543671458,15.0340534 C1.20404107,14.6890842 2.23894867,14.7383655 2.87960575,15.1129035 L30.2011663,30.882924 L44.9757043,22.2981191 C45.6163614,21.9235811 46.6611253,21.9235811 47.3017823,22.2981191 C47.9522957,22.6726571 47.9522957,23.2738891 47.3116386,23.6484271 L31.6106119,32.7753265 C30.8418234,33.2188583 29.590078,33.2188583 28.8212895,32.7753265 L28.2693388,32.4599261 L27.8849446,32.233232 L0.484533881,16.4237864 C-0.175835729,16.0295359 -0.165979466,15.3987351 0.543671458,15.0340534 Z M47.3412074,28.5864148 L31.6401807,37.7133142 C30.8713922,38.156846 29.6196468,38.156846 28.8508583,37.7133142 L28.2989076,37.3979138 L27.9046571,37.1712197 L0.514102669,21.3519179 C-0.156123203,20.9675236 -0.136410678,20.3367228 0.573240246,19.9621848 C1.23360986,19.6172156 2.26851745,19.6664969 2.90917454,20.0410349 L30.2307351,35.8110554 L44.9954168,27.2361068 C45.6360739,26.8615688 46.6808378,26.8615688 47.3313511,27.2361068 C47.9720082,27.6106448 47.9818645,28.2118768 47.3412074,28.5864148 Z M0.543671458,24.9001725 C1.20404107,24.5552033 2.23894867,24.6044846 2.87960575,24.9790226 L30.2011663,40.7588994 L44.9757043,32.1642382 C45.6163614,31.7897002 46.6611253,31.7897002 47.3017823,32.1642382 C47.9522957,32.5387762 47.9522957,33.1400082 47.3116386,33.5145462 L31.6106119,42.6414456 C30.8418234,43.0849774 29.590078,43.0849774 28.8212895,42.6414456 L28.2693388,42.3260452 L27.8849446,42.0993511 L0.484533881,26.2899055 C-0.175835729,25.9055113 -0.165979466,25.2747105 0.543671458,24.9001725 Z M47.3412074,38.4525339 L31.6401807,47.5794333 C30.8713922,48.0229651 29.6196468,48.0229651 28.8508583,47.5794333 L28.2989076,47.2640329 L27.9046571,47.0373388 L0.514102669,31.218037 C-0.156123203,30.8336427 -0.136410678,30.2028419 0.573240246,29.8283039 C1.23360986,29.4833347 2.26851745,29.532616 2.90917454,29.907154 L30.2307351,45.6771745 L45.0052731,37.0923696 C45.6459302,36.7178316 46.690694,36.7178316 47.3412074,37.0923696 C47.9720082,37.4767639 47.9818645,38.0779959 47.3412074,38.4525339 Z" id="Shape"></path>
        </g>
    </g>
</svg>