<?xml version="1.0" encoding="UTF-8" standalone="no"?>
<svg width="24px" height="24px" viewBox="0 0 24 24" version="1.1" xmlns="http://www.w3.org/2000/svg" xmlns:xlink="http://www.w3.org/1999/xlink">
    <!-- Generator: Sketch 47.1 (45422) - http://www.bohemiancoding.com/sketch -->
    <title>Artboard</title>
    <desc>Created with Sketch.</desc>
    <defs>
        <polygon id="path-1" points="5.58938182 0.216727273 0.0174545455 0.216727273 0.0174545455 15.7093818 11.1613091 15.7093818 11.1613091 0.216727273 5.58938182 0.216727273"></polygon>
    </defs>
    <g id="Page-5" stroke="none" stroke-width="1" fill="none" fill-rule="evenodd">
        <g id="Artboard">
            <g id="media-play-symbol" transform="translate(7.000000, 4.000000)">
                <mask id="mask-2" fill="white">
                    <use xlink:href="#path-1"></use>
                </mask>
                <g id="Clip-2"></g>
                <path d="M0.401163636,0.324654545 C0.525090909,0.253090909 0.663563636,0.216727273 0.802327273,0.216727273 C0.939636364,0.216727273 1.0784,0.253090909 1.20349091,0.324654545 L10.7601455,7.26894545 C11.008,7.41236364 11.1613091,7.67709091 11.1613091,7.96334545 C11.1613091,8.2496 11.0091636,8.51461818 10.7601455,8.65658182 L1.20349091,15.6020364 C0.954472727,15.7451636 0.648727273,15.7451636 0.401163636,15.6020364 C0.153309091,15.4589091 0,15.1930182 0,14.9076364 L0,1.01905455 C0,0.7328 0.153309091,0.467781818 0.401163636,0.324654545 Z" id="Fill-1" fill="#FFFFFF" mask="url(#mask-2)"></path>
            </g>
        </g>
    </g>
</svg>