<?xml version="1.0" encoding="UTF-8" standalone="no"?>
<svg width="216px" height="36px" viewBox="0 0 216 36" version="1.1" xmlns="http://www.w3.org/2000/svg" xmlns:xlink="http://www.w3.org/1999/xlink">
    <!-- Generator: Sketch 47.1 (45422) - http://www.bohemiancoding.com/sketch -->
    <title>Artboard</title>
    <desc>Created with Sketch.</desc>
    <defs></defs>
    <g id="Page-1" stroke="none" stroke-width="1" fill="none" fill-rule="evenodd">
        <g id="Artboard" fill-rule="nonzero">
            <g id="Group-7" fill="#3B5998">
                <path d="M22.2495805,15.2296683 L19.1215317,15.2296683 L19.1215317,12.9467415 C19.1215317,12.2464097 19.845922,12.0841463 20.1841463,12.0841463 L22.2047122,12.0841463 L22.2047122,9.00342442 L19.8888585,8.99104387 C16.7292,8.99104387 16.0078829,11.2883707 16.0078829,12.7612097 L16.0078829,15.2296683 L13.7150342,15.2296683 L13.7150342,18.404078 L16.0078829,18.404078 L16.0078829,26.9735708 L19.1215317,26.9735708 L19.1215317,18.404078 L21.7666537,18.404078 L22.2495805,15.2296683 Z" id="Fill-4-Copy-5"></path>
                <path d="M18,36 C8.0588745,36 0,27.9411255 0,18 C0,8.0588745 8.0588745,0 18,0 C27.9411255,0 36,8.0588745 36,18 C36,27.9411255 27.9411255,36 18,36 Z M18,34.5 C27.1126984,34.5 34.5,27.1126984 34.5,18 C34.5,8.88730162 27.1126984,1.5 18,1.5 C8.88730162,1.5 1.5,8.88730162 1.5,18 C1.5,27.1126984 8.88730162,34.5 18,34.5 Z" id="Combined-Shape-Copy-11"></path>
            </g>
            <g id="Group-8" transform="translate(36.000000, 0.000000)" fill="#0084B4">
                <path d="M26.9079416,12.0120876 C26.6058394,12.1917372 25.6994452,12.549635 24.8540146,12.6392409 C25.3960292,12.3248759 26.1987153,11.293927 26.3967591,10.4747737 C25.8756788,10.8326715 24.6788321,11.3551533 24.0879416,11.3551533 C24.0879416,11.3551533 24.0879416,11.3569051 24.0889927,11.3579562 C23.4141898,10.5987153 22.4661022,10.1254598 21.4126423,10.1254598 C19.3696642,10.1254598 17.7122628,11.909781 17.7122628,14.1108613 C17.7122628,14.4163795 17.7458102,14.7130511 17.8073869,14.9987737 L17.8059854,14.9987737 C15.0338978,14.9221314 11.7930219,13.4258978 9.96656932,10.8645547 C8.84566425,12.9564964 9.8156496,15.2823941 11.0888759,16.129927 C10.6543357,16.1661898 9.85059855,16.0762336 9.47281755,15.6810219 C9.44654017,17.0681168 10.0675621,18.9078832 12.327416,19.574365 C11.8915621,19.8275912 11.1226861,19.7550657 10.7870365,19.69927 C10.9051095,20.8728175 12.4290219,22.4056642 14.0943066,22.4056642 C13.5010511,23.143708 11.4755036,24.4873576 8.96916787,24.0589489 C10.6721168,25.1760876 12.6569343,25.8217226 14.758073,25.8217226 C20.7286423,25.8217226 25.3651971,20.6114452 25.1157372,14.1833869 C25.1157372,14.1755036 25.1133723,14.1680584 25.1133723,14.1611386 C25.1133723,14.143708 25.1157372,14.1262774 25.1157372,14.1108613 C25.1157372,14.091416 25.1133723,14.0715328 25.1133723,14.0506861 C25.6567007,13.6520584 26.3858102,12.9448467 26.9079416,12.0120876 L26.9079416,12.0120876 Z" id="Fill-4-Copy-4"></path>
                <path d="M18,36 C8.0588745,36 0,27.9411255 0,18 C0,8.0588745 8.0588745,0 18,0 C27.9411255,0 36,8.0588745 36,18 C36,27.9411255 27.9411255,36 18,36 Z M18,34.5 C27.1126984,34.5 34.5,27.1126984 34.5,18 C34.5,8.88730162 27.1126984,1.5 18,1.5 C8.88730162,1.5 1.5,8.88730162 1.5,18 C1.5,27.1126984 8.88730162,34.5 18,34.5 Z" id="Combined-Shape-Copy-10"></path>
            </g>
            <g id="Group-9" transform="translate(72.000000, 0.000000)" fill="#E52D27">
                <path d="M15.0557956,9.00420435 L14.3441168,11.7722628 L14.2729051,11.7722628 L13.526365,9.00420435 L12.365781,9.00420435 L13.838365,13.5942481 L13.838365,15.5253723 L14.6835328,15.5253723 L14.6835328,13.4669781 L16.2262774,9.00420435 L15.0557956,9.00420435 Z M18.7380438,12.0206715 C18.7380438,11.629927 18.6111241,11.2467153 18.3876788,11.022219 C18.1290219,10.7639124 18,10.6136934 17.5764088,10.6136934 C17.1107737,10.6136934 16.9817518,10.7902774 16.7060146,11.022219 C16.4298394,11.2587153 16.3084379,11.5950657 16.3084379,11.9892262 L16.3084379,14.1307445 C16.3084379,14.5662481 16.4442043,14.9111824 16.7114452,15.1708905 C16.9793869,15.4247299 17.1086715,15.552 17.5541605,15.552 C18.0174307,15.552 18.0766423,15.4271824 18.3449343,15.1818394 C18.607708,14.9344817 18.7380438,14.5905985 18.7380438,14.1526423 L18.7380438,12.0206715 Z M21.9997664,10.6181605 L21.1816642,10.6181605 L21.1816642,13.8854014 C21.0855766,13.9979562 20.658219,14.5762336 20.581927,14.5762336 C20.487416,14.5762336 20.4690219,14.5498686 20.4252262,14.4951241 C20.3823941,14.4414307 20.3604964,14.3551533 20.3604964,14.2337518 L20.3604964,10.6181605 L19.541781,10.6181605 L19.541781,14.5850803 C19.541781,14.8927007 19.567708,15.3405547 19.7319416,15.5068905 C19.8438832,15.6197956 20.1962628,15.6402919 20.5171971,15.3952993 C20.7635912,15.207854 20.9661022,14.9463941 21.1816642,14.5552993 L21.1816642,15.4247299 L21.9997664,15.4247299 L21.9997664,10.6181605 Z M26.9079416,20.4896059 C26.9079416,18.6392409 25.4432409,17.1392409 23.6322043,17.1392409 L12.2463066,17.1392409 C10.4366715,17.1392409 8.96916787,18.6392409 8.96916787,20.4896059 L8.96916787,23.5936642 C8.96916787,25.4409635 10.4366715,26.9429781 12.2463066,26.9429781 L23.6322043,26.9429781 C25.4432409,26.9429781 26.9079416,25.4409635 26.9079416,23.5936642 L26.9079416,20.4896059 Z M22.393927,25.3016934 C22.0192993,25.3016934 21.7280584,25.1846715 21.5135474,24.9458102 C21.3000876,24.7158832 21.1916496,24.3908321 21.1916496,23.9782774 L21.1916496,22.05127 C21.1916496,21.682073 21.3110365,21.0001752 21.5454307,20.7702481 C21.7828905,20.5324379 22.081927,20.4184817 22.4527883,20.4184817 C22.8349489,20.4184817 23.1275036,20.5249051 23.3276496,20.739416 C23.5356788,20.9604088 23.6363212,21.6471241 23.6363212,22.05127 L23.6363212,22.8645547 L22.0466277,22.8645547 L22.0466277,23.9494598 C22.0466277,24.1773723 22.0760584,24.331708 22.1308029,24.4202628 C22.1869489,24.5068905 22.2765547,24.5516496 22.4134598,24.5516496 C22.5493138,24.5516496 22.6433869,24.5147737 22.6981314,24.440146 C22.7518248,24.3655183 22.7823066,24.2068029 22.7823066,23.9494598 L22.7823066,23.7557956 L23.6363212,23.7557956 L23.6363212,23.977927 C23.6363212,24.4182481 23.5356788,24.7477664 23.3252847,24.9701605 C23.1151533,25.1891386 22.8045547,25.3016934 22.393927,25.3016934 L22.393927,25.3016934 Z M22.7826569,22.197635 L22.7826569,22.0468029 C22.7826569,21.8651387 22.7518248,21.3590365 22.6950657,21.2834453 C22.6412847,21.2057519 22.5448467,21.1664234 22.417927,21.1664234 C22.2875036,21.1664234 22.191416,21.2057519 22.134219,21.2834453 C22.0774598,21.3590365 22.0466277,21.8651387 22.0466277,22.0468029 L22.0466277,22.197635 L22.7826569,22.197635 Z M19.606073,25.3126423 C19.4363212,25.3126423 19.2865402,25.2776934 19.1561168,25.2110365 C19.028146,25.1473576 18.9053431,25.0488175 18.7917372,24.9089343 L18.7917372,25.251416 L17.9298394,25.251416 L17.9298394,18.7795621 L18.7411095,18.7795621 L18.7411095,20.736 C18.8584817,20.6004964 19.0336642,20.4951241 19.1561168,20.4239124 C19.2885547,20.3527883 19.4188905,20.3168759 19.5536934,20.3168759 C19.8219854,20.3168759 20.0320292,20.4163795 20.1723504,20.6069781 C20.313635,20.7975766 20.3848467,21.0768175 20.3848467,21.4425109 L20.3848467,24.3286423 C20.3848467,24.6461605 20.3177518,24.8870365 20.186365,25.0567007 C20.0508613,25.224 19.8568467,25.3126423 19.606073,25.3126423 L19.606073,25.3126423 Z M19.5811095,21.4904233 C19.5811095,21.3405547 19.4746861,21.2265985 19.417927,21.1468905 C19.3522336,21.0689343 19.2635912,21.0339854 19.1506861,21.0339854 C19.0873576,21.0339854 19.0291971,21.0473869 18.9679708,21.0768175 C18.9111241,21.104146 18.801635,21.1510073 18.7414598,21.21127 L18.7414598,24.4008175 C18.8091679,24.4709781 18.9286423,24.5266861 18.9977518,24.5585693 C19.0620438,24.5923795 19.1291386,24.6088467 19.202365,24.6088467 C19.3063357,24.6088467 19.3840292,24.576 19.4332555,24.51127 C19.4804671,24.4510949 19.5811095,24.3480876 19.5811095,24.2047007 L19.5811095,21.4904233 Z M16.2646423,24.7158832 C16.1068905,24.8910657 15.9436204,25.0827153 15.771854,25.1757372 C15.6032409,25.2742774 15.4379562,25.3171095 15.2757372,25.3171095 C15.0790073,25.3171095 14.9298394,25.2523795 14.8302481,25.1189781 C14.7296934,24.9855766 14.6550657,24.7894598 14.6550657,24.5246715 L14.6550657,20.4294307 L15.4817518,20.4294307 L15.4817518,24.222219 C15.4817518,24.3261898 15.500584,24.4008175 15.5354452,24.4490803 C15.5727591,24.4938394 15.6305693,24.5188029 15.7106277,24.5188029 C15.771854,24.5188029 15.9032409,24.4884088 15.9997664,24.4236788 C16.0959416,24.3635036 16.2352117,24.2823941 16.3149197,24.1903357 L16.3149197,20.4294307 L17.1196204,20.4294307 L17.1196204,25.3040584 L16.2646423,25.3040584 L16.2646423,24.7158832 Z M13.8602628,25.2995912 L13.0390949,25.2995912 L13.0390949,19.5942481 L12.2374598,19.5942481 L12.2374598,18.7795621 L14.688,18.7795621 L14.688,19.5942481 L13.8602628,19.5942481 L13.8602628,25.2995912 Z M17.5271824,14.6672409 C17.3913285,14.6672409 17.2859562,14.6288759 17.216146,14.5522336 C17.1415183,14.4766423 17.1056059,14.3682043 17.1056059,14.2268321 L17.1056059,11.9528759 C17.1056059,11.8399708 17.1459854,11.750365 17.2226277,11.6823066 C17.3003212,11.6124964 17.4012262,11.5771971 17.5271824,11.5771971 C17.661635,11.5771971 17.7197956,11.6124964 17.8039708,11.6823066 C17.8860438,11.750365 17.9298394,11.8399708 17.9298394,11.9528759 L17.9298394,14.2268321 C17.9298394,14.3657518 17.8870949,14.4721752 17.8073869,14.5522336 C17.7218102,14.6288759 17.6661022,14.6672409 17.5271824,14.6672409 L17.5271824,14.6672409 Z" id="Fill-4-Copy-3"></path>
                <path d="M18,36 C8.0588745,36 0,27.9411255 0,18 C0,8.0588745 8.0588745,0 18,0 C27.9411255,0 36,8.0588745 36,18 C36,27.9411255 27.9411255,36 18,36 Z M18,34.5 C27.1126984,34.5 34.5,27.1126984 34.5,18 C34.5,8.88730162 27.1126984,1.5 18,1.5 C8.88730162,1.5 1.5,8.88730162 1.5,18 C1.5,27.1126984 8.88730162,34.5 18,34.5 Z" id="Combined-Shape-Copy-9"></path>
            </g>
            <g id="Group-10" transform="translate(108.000000, 0.000000)" fill="#0077B5">
                <path d="M10.4760876,25.4381871 L13.4180791,25.4381871 L13.4180791,13.6695313 L10.4760876,13.6695313 L10.4760876,25.4381871 Z M22.244437,13.6695313 C19.7256085,13.7116714 18.4865365,15.5478302 18.3216538,15.6310378 L18.3216538,13.6695313 L15.3796623,13.6695313 L15.3796623,25.4381871 L18.3216538,25.4381871 L18.3216538,18.573106 C18.3216538,18.3214147 18.9424157,16.3053559 21.2636454,16.6118293 C22.510839,16.6932746 23.1830118,18.3423314 23.2252285,18.573106 L23.2252285,25.4381871 L26.1558805,25.4516719 L26.1558805,17.3040761 C26.0522926,16.1282143 25.4645531,13.7116714 22.244437,13.6695313 L22.244437,13.6695313 Z M11.9470834,9.7466715 C11.1347755,9.7466715 10.4760876,10.4045167 10.4760876,11.2177439 C10.4760876,12.0308945 11.1347755,12.6887397 11.9470834,12.6887397 C12.7590081,12.6887397 13.4180791,12.0308945 13.4180791,11.2177439 C13.4180791,10.4045167 12.7590081,9.7466715 11.9470834,9.7466715 L11.9470834,9.7466715 Z" id="Fill-4-Copy-2"></path>
                <path d="M18,36 C8.0588745,36 0,27.9411255 0,18 C0,8.0588745 8.0588745,0 18,0 C27.9411255,0 36,8.0588745 36,18 C36,27.9411255 27.9411255,36 18,36 Z M18,34.5 C27.1126984,34.5 34.5,27.1126984 34.5,18 C34.5,8.88730162 27.1126984,1.5 18,1.5 C8.88730162,1.5 1.5,8.88730162 1.5,18 C1.5,27.1126984 8.88730162,34.5 18,34.5 Z" id="Combined-Shape-Copy-8"></path>
            </g>
            <g id="Group-11" transform="translate(144.000000, 0.000000)" fill="#BC2A8D">
                <path d="M18,36 C8.0588745,36 0,27.9411255 0,18 C0,8.0588745 8.0588745,0 18,0 C27.9411255,0 36,8.0588745 36,18 C36,27.9411255 27.9411255,36 18,36 Z M18,34.5 C27.1126984,34.5 34.5,27.1126984 34.5,18 C34.5,8.88730162 27.1126984,1.5 18,1.5 C8.88730162,1.5 1.5,8.88730162 1.5,18 C1.5,27.1126984 8.88730162,34.5 18,34.5 Z" id="Combined-Shape-Copy-7"></path>
                <g id="instagram-copy" transform="translate(9.000000, 9.000000)">
                    <path d="M15.5278571,0.22 L2.43242857,0.22 C1.235,0.22 0.261142857,1.19385714 0.261142857,2.39128571 L0.261142857,15.6485714 C0.261142857,16.8455714 1.235,17.8198571 2.43242857,17.8198571 L15.5278571,17.8198571 C16.7248571,17.8198571 17.6992857,16.8455714 17.6992857,15.6485714 L17.6992857,2.39128571 C17.6992857,1.19385714 16.7248571,0.22 15.5278571,0.22 Z M15.6422857,15.6485714 C15.6422857,15.7117143 15.591,15.763 15.5278571,15.763 L2.43242857,15.763 C2.36942857,15.763 2.31814285,15.7117143 2.31814285,15.6485714 L2.31814285,2.39128571 C2.31814285,2.32828571 2.36942857,2.277 2.43242857,2.277 L15.5278571,2.277 C15.591,2.277 15.6422857,2.32828571 15.6422857,2.39128571 L15.6422857,15.6485714 Z" id="Fill-2"></path>
                    <polygon id="Fill-3" points="11.981 5.97957142 14.337 5.97957142 14.337 3.81828572 11.981 3.81828572"></polygon>
                    <path d="M11.303,9.89071425 C11.303,11.1737143 10.2628571,12.2132857 8.97985717,12.2132857 C7.69757145,12.2132857 6.65742857,11.1737143 6.65742857,9.89071425 C6.65742857,8.60785717 7.69757145,7.5682857 8.97985717,7.5682857 C10.2628571,7.5682857 11.303,8.60785717 11.303,9.89071425 Z" id="Fill-4"></path>
                    <path d="M12.6852857,9.88071427 C12.6852857,11.9264286 11.0262857,13.5855714 8.9804286,13.5855714 C6.93414286,13.5855714 5.27514286,11.9264286 5.27514286,9.88071427 L5.28014286,8.22957142 L3.62328571,8.22957142 L3.62328571,14.3734285 L14.337,14.3734285 L14.337,8.22957142 L12.6935714,8.22957142 L12.6852857,9.88071427 Z" id="Fill-5"></path>
                </g>
            </g>
            <g id="Group-12" transform="translate(180.000000, 0.000000)" fill="#D34836">
                <path d="M19.484584,9.5612847 C20.095708,9.21845257 20.3625985,8.99605837 20.3625985,8.99605837 L14.5268321,8.99605837 C13.3576642,8.99605837 10.1103066,10.3242919 10.1103066,13.4248467 C10.1103066,16.5261022 13.4781022,17.1919708 14.6999124,17.1416934 C14.0145985,17.9782774 14.6013723,18.7422481 14.9691679,19.1333431 C15.3349489,19.5275036 15.2607591,19.6499562 14.8228029,19.6499562 C14.3823941,19.6499562 8.96268615,19.7091679 8.96268615,23.5895474 C8.96268615,27.4695766 16.1650511,27.7501314 18.5320292,25.6588905 C20.8990949,23.5676496 20.3868613,20.6836204 18.5560292,19.3807007 C16.7254598,18.0768175 16.0421605,17.4612262 17.2136934,16.4275621 C18.3852262,15.3939854 19.3138686,14.5577518 19.3138686,12.6375766 C19.3138686,10.7174014 17.7262774,9.7350657 17.7262774,9.7350657 C17.7262774,9.7350657 18.8738978,9.9061314 19.484584,9.5612847 L19.484584,9.5612847 Z M18.5802919,23.3924671 C18.5802919,25.0662481 17.1589489,25.8778686 14.7458102,25.8778686 C12.3304817,25.8778686 11.0364964,24.6720876 11.0364964,22.8755036 C11.0364964,21.077781 12.7948029,20.1919708 16.0904233,20.1919708 C16.9837664,20.8807007 18.5802919,21.7172847 18.5802919,23.3924671 L18.5802919,23.3924671 Z M15.0896059,16.3772847 C12.1841168,16.3772847 10.865781,9.5876496 14.283854,9.5876496 C16.9444379,9.48770805 18.946073,16.3772847 15.0896059,16.3772847 L15.0896059,16.3772847 Z M24.7181605,11.2494307 L24.7181605,9.04116787 L23.5774598,9.04116787 L23.5774598,11.2494307 L21.3438832,11.2494307 L21.3438832,12.3956496 L23.5774598,12.3956496 L23.5774598,14.6080292 L24.7181605,14.6080292 L24.7181605,12.3956496 L26.9144233,12.3956496 L26.9144233,11.2494307 L24.7181605,11.2494307 Z" id="Fill-4-Copy"></path>
                <path d="M18,36 C8.0588745,36 0,27.9411255 0,18 C0,8.0588745 8.0588745,0 18,0 C27.9411255,0 36,8.0588745 36,18 C36,27.9411255 27.9411255,36 18,36 Z M18,34.5 C27.1126984,34.5 34.5,27.1126984 34.5,18 C34.5,8.88730162 27.1126984,1.5 18,1.5 C8.88730162,1.5 1.5,8.88730162 1.5,18 C1.5,27.1126984 8.88730162,34.5 18,34.5 Z" id="Combined-Shape-Copy-6"></path>
            </g>
        </g>
    </g>
</svg>